<svg width="267" height="140" viewBox="0 0 267 140" fill="none" xmlns="http://www.w3.org/2000/svg">
<g opacity="0.3">
<path opacity="0.7" d="M86.9082 56.2777C86.9082 54.5464 88.3121 53.1426 90.0475 53.1426C91.7787 53.1426 93.1867 54.5464 93.1867 56.2777C93.1867 58.0131 91.7828 59.417 90.0475 59.417C88.3121 59.417 86.9082 58.0131 86.9082 56.2777Z" fill="#72C4FF"/>
<path opacity="0.7" d="M57.9395 56.2777C57.9395 54.5464 59.3433 53.1426 61.0787 53.1426C62.81 53.1426 64.218 54.5464 64.218 56.2777C64.218 58.0131 62.8141 59.417 61.0787 59.417C59.3433 59.417 57.9395 58.0131 57.9395 56.2777Z" fill="#72C4FF"/>
<path opacity="0.7" d="M28.9697 56.2777C28.9697 54.5464 30.3736 53.1426 32.109 53.1426C33.8403 53.1426 35.2482 54.5464 35.2482 56.2777C35.2482 58.0131 33.8444 59.417 32.109 59.417C30.3736 59.417 28.9697 58.0131 28.9697 56.2777Z" fill="#72C4FF"/>
<path opacity="0.7" d="M0 56.2777C0 54.5464 1.40386 53.1426 3.13925 53.1426C4.87055 53.1426 6.2785 54.5464 6.2785 56.2777C6.2785 58.0131 4.87464 59.417 3.13925 59.417C1.40386 59.417 0 58.0131 0 56.2777Z" fill="#72C4FF"/>
<path opacity="0.7" d="M86.9082 82.861C86.9082 81.1297 88.3121 79.7258 90.0475 79.7258C91.7787 79.7258 93.1867 81.1297 93.1867 82.861C93.1867 84.5964 91.7828 86.0002 90.0475 86.0002C88.3121 86.0002 86.9082 84.5964 86.9082 82.861Z" fill="#72C4FF"/>
<path opacity="0.7" d="M57.9395 82.861C57.9395 81.1297 59.3433 79.7258 61.0787 79.7258C62.81 79.7258 64.218 81.1297 64.218 82.861C64.218 84.5964 62.8141 86.0002 61.0787 86.0002C59.3433 86.0002 57.9395 84.5964 57.9395 82.861Z" fill="#72C4FF"/>
<path opacity="0.7" d="M28.9697 82.861C28.9697 81.1297 30.3736 79.7258 32.109 79.7258C33.8403 79.7258 35.2482 81.1297 35.2482 82.861C35.2482 84.5964 33.8444 86.0002 32.109 86.0002C30.3736 86.0002 28.9697 84.5964 28.9697 82.861Z" fill="#72C4FF"/>
<path opacity="0.7" d="M0 82.861C0 81.1297 1.40386 79.7258 3.13925 79.7258C4.87055 79.7258 6.2785 81.1297 6.2785 82.861C6.2785 84.5964 4.87464 86.0002 3.13925 86.0002C1.40386 86.0002 0 84.5964 0 82.861Z" fill="#72C4FF"/>
<path opacity="0.7" d="M86.9082 109.444C86.9082 107.713 88.3121 106.305 90.0475 106.305C91.7787 106.305 93.1867 107.709 93.1867 109.444C93.1867 111.18 91.7828 112.583 90.0475 112.583C88.3121 112.583 86.9082 111.175 86.9082 109.444Z" fill="#72C4FF"/>
<path opacity="0.7" d="M57.9395 109.444C57.9395 107.713 59.3433 106.305 61.0787 106.305C62.81 106.305 64.218 107.709 64.218 109.444C64.218 111.18 62.8141 112.583 61.0787 112.583C59.3433 112.583 57.9395 111.175 57.9395 109.444Z" fill="#72C4FF"/>
<path opacity="0.7" d="M28.9697 109.444C28.9697 107.713 30.3736 106.305 32.109 106.305C33.8403 106.305 35.2482 107.709 35.2482 109.444C35.2482 111.18 33.8444 112.583 32.109 112.583C30.3736 112.583 28.9697 111.175 28.9697 109.444Z" fill="#72C4FF"/>
<path opacity="0.7" d="M0 109.444C0 107.713 1.40386 106.305 3.13925 106.305C4.87055 106.305 6.2785 107.709 6.2785 109.444C6.2785 111.18 4.87464 112.583 3.13925 112.583C1.40386 112.583 0 111.175 0 109.444Z" fill="#72C4FF"/>
<path opacity="0.7" d="M86.9082 136.024C86.9082 134.292 88.3121 132.884 90.0475 132.884C91.7787 132.884 93.1867 134.288 93.1867 136.024C93.1867 137.755 91.7828 139.163 90.0475 139.163C88.3121 139.163 86.9082 137.759 86.9082 136.024Z" fill="#72C4FF"/>
<path opacity="0.7" d="M57.9395 136.024C57.9395 134.292 59.3433 132.884 61.0787 132.884C62.81 132.884 64.218 134.288 64.218 136.024C64.218 137.755 62.8141 139.163 61.0787 139.163C59.3433 139.163 57.9395 137.759 57.9395 136.024Z" fill="#72C4FF"/>
<path opacity="0.7" d="M28.9697 136.024C28.9697 134.292 30.3736 132.884 32.109 132.884C33.8403 132.884 35.2482 134.288 35.2482 136.024C35.2482 137.755 33.8444 139.163 32.109 139.163C30.3736 139.163 28.9697 137.759 28.9697 136.024Z" fill="#72C4FF"/>
<path opacity="0.7" d="M0 136.024C0 134.292 1.40386 132.884 3.13925 132.884C4.87055 132.884 6.2785 134.288 6.2785 136.024C6.2785 137.755 4.87464 139.163 3.13925 139.163C1.40386 139.163 0 137.759 0 136.024Z" fill="#72C4FF"/>
<path opacity="0.7" d="M173.816 56.2777C173.816 54.5464 175.22 53.1426 176.956 53.1426C178.691 53.1426 180.095 54.5464 180.095 56.2777C180.095 58.0131 178.691 59.417 176.956 59.417C175.22 59.417 173.816 58.0131 173.816 56.2777Z" fill="#72C4FF"/>
<path opacity="0.7" d="M144.848 56.2777C144.848 54.5464 146.252 53.1426 147.987 53.1426C149.718 53.1426 151.126 54.5464 151.126 56.2777C151.126 58.0131 149.722 59.417 147.987 59.417C146.252 59.417 144.848 58.0131 144.848 56.2777Z" fill="#72C4FF"/>
<path opacity="0.7" d="M115.879 56.2777C115.879 54.5464 117.283 53.1426 119.018 53.1426C120.754 53.1426 122.157 54.5464 122.157 56.2777C122.157 58.0131 120.754 59.417 119.018 59.417C117.283 59.417 115.879 58.0131 115.879 56.2777Z" fill="#72C4FF"/>
<path opacity="0.7" d="M173.816 82.861C173.816 81.1297 175.22 79.7258 176.956 79.7258C178.691 79.7258 180.095 81.1297 180.095 82.861C180.095 84.5964 178.691 86.0002 176.956 86.0002C175.22 86.0002 173.816 84.5964 173.816 82.861Z" fill="#72C4FF"/>
<path opacity="0.7" d="M144.848 82.861C144.848 81.1297 146.252 79.7258 147.987 79.7258C149.718 79.7258 151.126 81.1297 151.126 82.861C151.126 84.5964 149.722 86.0002 147.987 86.0002C146.252 86.0002 144.848 84.5964 144.848 82.861Z" fill="#72C4FF"/>
<path opacity="0.7" d="M115.879 82.861C115.879 81.1297 117.283 79.7258 119.018 79.7258C120.754 79.7258 122.157 81.1297 122.157 82.861C122.157 84.5964 120.754 86.0002 119.018 86.0002C117.283 86.0002 115.879 84.5964 115.879 82.861Z" fill="#72C4FF"/>
<path opacity="0.7" d="M173.816 109.444C173.816 107.713 175.22 106.305 176.956 106.305C178.691 106.305 180.095 107.709 180.095 109.444C180.095 111.18 178.691 112.583 176.956 112.583C175.22 112.583 173.816 111.175 173.816 109.444Z" fill="#72C4FF"/>
<path opacity="0.7" d="M86.9082 3.1354C86.9082 1.40411 88.3121 0.000244141 90.0475 0.000244141C91.7787 0.000244141 93.1867 1.40411 93.1867 3.1354C93.1867 4.87079 91.7787 6.27465 90.0475 6.27465C88.3121 6.27465 86.9082 4.87079 86.9082 3.1354Z" fill="#72C4FF"/>
<path opacity="0.7" d="M57.9395 3.1354C57.9395 1.40411 59.3433 0.000244141 61.0787 0.000244141C62.81 0.000244141 64.218 1.40411 64.218 3.1354C64.218 4.87079 62.8141 6.27465 61.0787 6.27465C59.3433 6.27465 57.9395 4.87079 57.9395 3.1354Z" fill="#72C4FF"/>
<path opacity="0.7" d="M28.9697 3.1354C28.9697 1.40411 30.3736 0.000244141 32.109 0.000244141C33.8403 0.000244141 35.2482 1.40411 35.2482 3.1354C35.2482 4.87079 33.8444 6.27465 32.109 6.27465C30.3736 6.27465 28.9697 4.87079 28.9697 3.1354Z" fill="#72C4FF"/>
<path opacity="0.7" d="M0 3.1354C0 1.40411 1.40386 0.000244141 3.13925 0.000244141C4.87055 0.000244141 6.2785 1.40411 6.2785 3.1354C6.2785 4.87079 4.87464 6.27465 3.13925 6.27465C1.40386 6.27465 0 4.87079 0 3.1354Z" fill="#72C4FF"/>
<path opacity="0.7" d="M86.9082 29.7187C86.9082 27.9874 88.3121 26.5835 90.0475 26.5835C91.7787 26.5835 93.1867 27.9874 93.1867 29.7187C93.1867 31.454 91.7828 32.8579 90.0475 32.8579C88.3121 32.8579 86.9082 31.454 86.9082 29.7187Z" fill="#72C4FF"/>
<path opacity="0.7" d="M57.9395 29.7187C57.9395 27.9874 59.3433 26.5835 61.0787 26.5835C62.81 26.5835 64.218 27.9874 64.218 29.7187C64.218 31.454 62.8141 32.8579 61.0787 32.8579C59.3433 32.8579 57.9395 31.454 57.9395 29.7187Z" fill="#72C4FF"/>
<path opacity="0.7" d="M28.9697 29.7187C28.9697 27.9874 30.3736 26.5835 32.109 26.5835C33.8403 26.5835 35.2482 27.9874 35.2482 29.7187C35.2482 31.454 33.8444 32.8579 32.109 32.8579C30.3736 32.8579 28.9697 31.454 28.9697 29.7187Z" fill="#72C4FF"/>
<path opacity="0.7" d="M0 29.7187C0 27.9874 1.40386 26.5835 3.13925 26.5835C4.87055 26.5835 6.2785 27.9874 6.2785 29.7187C6.2785 31.454 4.87464 32.8579 3.13925 32.8579C1.40386 32.8579 0 31.454 0 29.7187Z" fill="#72C4FF"/>
<path opacity="0.7" d="M173.816 3.1354C173.816 1.40411 175.22 0.000244141 176.956 0.000244141C178.691 0.000244141 180.095 1.40411 180.095 3.1354C180.095 4.87079 178.691 6.27465 176.956 6.27465C175.22 6.27465 173.816 4.87079 173.816 3.1354Z" fill="#72C4FF"/>
<path opacity="0.7" d="M144.848 3.1354C144.848 1.40411 146.252 0.000244141 147.987 0.000244141C149.718 0.000244141 151.126 1.40411 151.126 3.1354C151.126 4.87079 149.722 6.27465 147.987 6.27465C146.252 6.27465 144.848 4.87079 144.848 3.1354Z" fill="#72C4FF"/>
<path opacity="0.7" d="M115.879 3.1354C115.879 1.40411 117.283 0.000244141 119.018 0.000244141C120.754 0.000244141 122.157 1.40411 122.157 3.1354C122.157 4.87079 120.754 6.27465 119.018 6.27465C117.283 6.27465 115.879 4.87079 115.879 3.1354Z" fill="#72C4FF"/>
<path opacity="0.7" d="M173.816 29.7187C173.816 27.9874 175.22 26.5835 176.956 26.5835C178.691 26.5835 180.095 27.9874 180.095 29.7187C180.095 31.454 178.691 32.8579 176.956 32.8579C175.22 32.8579 173.816 31.454 173.816 29.7187Z" fill="#72C4FF"/>
<path opacity="0.7" d="M144.848 29.7187C144.848 27.9874 146.252 26.5835 147.987 26.5835C149.718 26.5835 151.126 27.9874 151.126 29.7187C151.126 31.454 149.722 32.8579 147.987 32.8579C146.252 32.8579 144.848 31.454 144.848 29.7187Z" fill="#72C4FF"/>
<path opacity="0.7" d="M115.879 29.7187C115.879 27.9874 117.283 26.5835 119.018 26.5835C120.754 26.5835 122.157 27.9874 122.157 29.7187C122.157 31.454 120.754 32.8579 119.018 32.8579C117.283 32.8579 115.879 31.454 115.879 29.7187Z" fill="#72C4FF"/>
<path opacity="0.7" d="M144.848 109.444C144.848 107.713 146.252 106.305 147.987 106.305C149.722 106.305 151.126 107.709 151.126 109.444C151.126 111.18 149.722 112.583 147.987 112.583C146.252 112.583 144.848 111.175 144.848 109.444Z" fill="#72C4FF"/>
<path opacity="0.7" d="M115.879 109.444C115.879 107.713 117.283 106.305 119.018 106.305C120.754 106.305 122.157 107.709 122.157 109.444C122.157 111.18 120.754 112.583 119.018 112.583C117.283 112.583 115.879 111.175 115.879 109.444Z" fill="#72C4FF"/>
<path opacity="0.7" d="M173.816 136.024C173.816 134.292 175.22 132.884 176.956 132.884C178.691 132.884 180.095 134.288 180.095 136.024C180.095 137.755 178.691 139.163 176.956 139.163C175.22 139.163 173.816 137.759 173.816 136.024Z" fill="#72C4FF"/>
<path opacity="0.7" d="M144.848 136.024C144.848 134.292 146.252 132.884 147.987 132.884C149.722 132.884 151.126 134.288 151.126 136.024C151.126 137.755 149.722 139.163 147.987 139.163C146.252 139.163 144.848 137.759 144.848 136.024Z" fill="#72C4FF"/>
<path opacity="0.7" d="M115.879 136.024C115.879 134.292 117.283 132.884 119.018 132.884C120.754 132.884 122.157 134.288 122.157 136.024C122.157 137.755 120.754 139.163 119.018 139.163C117.283 139.163 115.879 137.759 115.879 136.024Z" fill="#72C4FF"/>
<path opacity="0.7" d="M260.722 56.2777C260.722 54.5464 262.126 53.1426 263.861 53.1426C265.592 53.1426 267 54.5464 267 56.2777C267 58.0131 265.596 59.417 263.861 59.417C262.13 59.417 260.722 58.0131 260.722 56.2777Z" fill="#72C4FF"/>
<path opacity="0.7" d="M231.756 56.2777C231.756 54.5464 233.16 53.1426 234.895 53.1426C236.63 53.1426 238.034 54.5464 238.034 56.2777C238.034 58.0131 236.63 59.417 234.895 59.417C233.16 59.417 231.756 58.0131 231.756 56.2777Z" fill="#72C4FF"/>
<path opacity="0.7" d="M202.787 56.2777C202.787 54.5464 204.191 53.1426 205.926 53.1426C207.662 53.1426 209.066 54.5464 209.066 56.2777C209.066 58.0131 207.662 59.417 205.926 59.417C204.191 59.417 202.787 58.0131 202.787 56.2777Z" fill="#72C4FF"/>
<path opacity="0.7" d="M260.722 82.861C260.722 81.1297 262.126 79.7258 263.861 79.7258C265.592 79.7258 267 81.1297 267 82.861C267 84.5964 265.596 86.0002 263.861 86.0002C262.13 86.0002 260.722 84.5964 260.722 82.861Z" fill="#72C4FF"/>
<path opacity="0.7" d="M231.756 82.861C231.756 81.1297 233.16 79.7258 234.895 79.7258C236.63 79.7258 238.034 81.1297 238.034 82.861C238.034 84.5964 236.63 86.0002 234.895 86.0002C233.16 86.0002 231.756 84.5964 231.756 82.861Z" fill="#72C4FF"/>
<path opacity="0.7" d="M202.787 82.861C202.787 81.1297 204.191 79.7258 205.926 79.7258C207.662 79.7258 209.066 81.1297 209.066 82.861C209.066 84.5964 207.662 86.0002 205.926 86.0002C204.191 86.0002 202.787 84.5964 202.787 82.861Z" fill="#72C4FF"/>
<path opacity="0.7" d="M260.722 109.444C260.722 107.713 262.126 106.305 263.861 106.305C265.592 106.305 267 107.709 267 109.444C267 111.18 265.596 112.583 263.861 112.583C262.13 112.583 260.722 111.175 260.722 109.444Z" fill="#72C4FF"/>
<path opacity="0.7" d="M260.722 3.1354C260.722 1.40411 262.126 0.000244141 263.861 0.000244141C265.592 0.000244141 267 1.40411 267 3.1354C267 4.87079 265.596 6.27465 263.861 6.27465C262.13 6.27465 260.722 4.87079 260.722 3.1354Z" fill="#72C4FF"/>
<path opacity="0.7" d="M231.756 3.1354C231.756 1.40411 233.16 0.000244141 234.895 0.000244141C236.63 0.000244141 238.034 1.40411 238.034 3.1354C238.034 4.87079 236.63 6.27465 234.895 6.27465C233.16 6.27465 231.756 4.87079 231.756 3.1354Z" fill="#72C4FF"/>
<path opacity="0.7" d="M202.787 3.1354C202.787 1.40411 204.191 0.000244141 205.926 0.000244141C207.662 0.000244141 209.066 1.40411 209.066 3.1354C209.066 4.87079 207.662 6.27465 205.926 6.27465C204.191 6.27465 202.787 4.87079 202.787 3.1354Z" fill="#72C4FF"/>
<path opacity="0.7" d="M260.722 29.7187C260.722 27.9874 262.126 26.5835 263.861 26.5835C265.592 26.5835 267 27.9874 267 29.7187C267 31.454 265.596 32.8579 263.861 32.8579C262.13 32.8579 260.722 31.454 260.722 29.7187Z" fill="#72C4FF"/>
<path opacity="0.7" d="M231.756 29.7187C231.756 27.9874 233.16 26.5835 234.895 26.5835C236.63 26.5835 238.034 27.9874 238.034 29.7187C238.034 31.454 236.63 32.8579 234.895 32.8579C233.16 32.8579 231.756 31.454 231.756 29.7187Z" fill="#72C4FF"/>
<path opacity="0.7" d="M202.787 29.7187C202.787 27.9874 204.191 26.5835 205.926 26.5835C207.662 26.5835 209.066 27.9874 209.066 29.7187C209.066 31.454 207.662 32.8579 205.926 32.8579C204.191 32.8579 202.787 31.454 202.787 29.7187Z" fill="#72C4FF"/>
<path opacity="0.7" d="M231.756 109.444C231.756 107.713 233.16 106.305 234.895 106.305C236.63 106.305 238.034 107.709 238.034 109.444C238.034 111.18 236.63 112.583 234.895 112.583C233.16 112.583 231.756 111.175 231.756 109.444Z" fill="#72C4FF"/>
<path opacity="0.7" d="M202.787 109.444C202.787 107.713 204.191 106.305 205.926 106.305C207.662 106.305 209.066 107.709 209.066 109.444C209.066 111.18 207.662 112.583 205.926 112.583C204.191 112.583 202.787 111.175 202.787 109.444Z" fill="#72C4FF"/>
<path opacity="0.7" d="M260.722 136.024C260.722 134.292 262.126 132.884 263.861 132.884C265.592 132.884 267 134.288 267 136.024C267 137.755 265.596 139.163 263.861 139.163C262.13 139.163 260.722 137.759 260.722 136.024Z" fill="#72C4FF"/>
<path opacity="0.7" d="M231.756 136.024C231.756 134.292 233.16 132.884 234.895 132.884C236.63 132.884 238.034 134.288 238.034 136.024C238.034 137.755 236.63 139.163 234.895 139.163C233.16 139.163 231.756 137.759 231.756 136.024Z" fill="#72C4FF"/>
<path opacity="0.7" d="M202.787 136.024C202.787 134.292 204.191 132.884 205.926 132.884C207.662 132.884 209.066 134.288 209.066 136.024C209.066 137.755 207.662 139.163 205.926 139.163C204.191 139.163 202.787 137.759 202.787 136.024Z" fill="#72C4FF"/>
</g>
</svg>
