<svg width="418" height="451" viewBox="0 0 418 451" fill="none" xmlns="http://www.w3.org/2000/svg">
<g opacity="0.2">
<path d="M120.015 26.0706L26.0684 120.017C28.2496 115.9 30.5566 111.856 32.9833 107.896L107.9 32.9793C111.857 30.5557 115.898 28.2487 120.015 26.0706Z" fill="#72C4FF"/>
<path d="M152.715 11.9368L11.9385 152.713C12.8742 149.965 13.862 147.244 14.902 144.544L144.542 14.9003C147.242 13.8603 149.966 12.8725 152.715 11.9368Z" fill="#72C4FF"/>
<path d="M178.336 4.87769L4.87793 178.336C5.35651 176.075 5.87191 173.826 6.42105 171.59L171.587 6.42081C173.823 5.87166 176.075 5.35627 178.336 4.87769Z" fill="#72C4FF"/>
<path d="M200.468 1.31299L1.31348 200.468C1.53129 198.48 1.77672 196.498 2.04976 194.525L194.526 2.04927C196.498 1.77623 198.48 1.5308 200.468 1.31299Z" fill="#72C4FF"/>
<path d="M220.348 0L0.000976562 220.344C0.0408584 218.543 0.102215 216.745 0.185046 214.957L214.955 0.18407C216.746 0.101238 218.544 0.0398818 220.348 0Z" fill="#72C4FF"/>
<path d="M238.596 0.315781L0.317001 238.594C0.221899 236.941 0.145203 235.281 0.0869141 233.618L233.62 0.0856934C235.282 0.143982 236.942 0.220678 238.596 0.315781Z" fill="#72C4FF"/>
<path d="M1.36035 250.909L101.286 150.987C99.0677 154.671 97.0123 158.463 95.1255 162.353L1.9279 255.551C1.72542 254.008 1.53522 252.462 1.36035 250.909Z" fill="#72C4FF"/>
<path d="M255.551 1.92668L162.354 95.1244C158.464 97.0111 154.669 99.0666 150.984 101.285L250.91 1.35913C252.462 1.534 254.008 1.7242 255.551 1.92668Z" fill="#72C4FF"/>
<path d="M3.76758 267.07L86.6481 184.187C85.9517 186.533 85.3105 188.908 84.7338 191.307L4.62657 271.414C4.32286 269.972 4.04062 268.524 3.76758 267.07Z" fill="#72C4FF"/>
<path d="M271.417 4.62326L191.307 84.7336C188.908 85.3103 186.533 85.9515 184.187 86.6479L267.067 3.76733C268.521 4.0373 269.972 4.32261 271.417 4.62326Z" fill="#72C4FF"/>
<path d="M7.14941 282.252L81.7683 207.634C81.529 209.557 81.3296 211.49 81.1731 213.435L8.25383 286.354C7.87342 284.992 7.50528 283.624 7.14941 282.252Z" fill="#72C4FF"/>
<path d="M286.356 8.25237L213.437 81.1717C211.492 81.3282 209.559 81.5276 207.636 81.7669L282.255 7.14795C283.629 7.50382 284.994 7.87196 286.356 8.25237Z" fill="#72C4FF"/>
<path d="M80.6883 227.28C80.7067 228.97 80.7558 230.655 80.8387 232.333L12.7083 300.463C12.2542 299.175 11.8124 297.883 11.3799 296.586L80.6883 227.28Z" fill="#72C4FF"/>
<path d="M300.465 12.7065L232.334 80.837C230.656 80.7542 228.972 80.7051 227.278 80.6867L296.587 11.3782C297.884 11.8077 299.176 12.2525 300.465 12.7065Z" fill="#72C4FF"/>
<path d="M81.9304 244.601C82.1267 246.12 82.3507 247.635 82.5992 249.139L17.9047 313.833C17.3863 312.612 16.877 311.388 16.377 310.155L81.9304 244.601Z" fill="#72C4FF"/>
<path d="M313.833 17.904L249.139 82.5985C247.636 82.35 246.12 82.126 244.602 81.9297L310.152 16.3762C311.385 16.8732 312.612 17.3855 313.833 17.904Z" fill="#72C4FF"/>
<path d="M84.8717 260.223C85.2123 261.606 85.5712 262.984 85.9547 264.349L23.7851 326.515C23.2022 325.359 22.6316 324.193 22.0732 323.024L84.8717 260.223Z" fill="#72C4FF"/>
<path d="M326.515 23.7847L264.349 85.9544C262.984 85.5709 261.606 85.212 260.223 84.8714L323.024 22.0698C324.193 22.6312 325.359 23.2019 326.515 23.7847Z" fill="#72C4FF"/>
<path d="M89.1797 274.482C89.6337 275.752 90.1093 277.016 90.6001 278.268L30.3019 338.566C29.6638 337.468 29.0318 336.36 28.4121 335.25L89.1797 274.482Z" fill="#72C4FF"/>
<path d="M338.567 30.3009L278.269 90.5992C277.017 90.1083 275.753 89.6328 274.483 89.1788L335.251 28.4111C336.362 29.0308 337.469 29.6597 338.567 30.3009Z" fill="#72C4FF"/>
<path d="M94.6378 287.591C95.1931 288.763 95.7668 289.925 96.3558 291.079L37.4166 350.015C36.7233 348.972 36.0392 347.923 35.3643 346.864L94.6378 287.591Z" fill="#72C4FF"/>
<path d="M350.019 37.4151L291.08 96.3543C289.927 95.7652 288.764 95.1916 287.589 94.6363L346.866 35.3596C347.924 36.0345 348.976 36.7217 350.019 37.4151Z" fill="#72C4FF"/>
<path d="M101.11 299.685C101.757 300.768 102.417 301.841 103.092 302.906L45.1034 360.894C44.3579 359.903 43.6216 358.906 42.8945 357.9L101.11 299.685Z" fill="#72C4FF"/>
<path d="M360.894 45.1035L302.906 103.092C301.841 102.417 300.768 101.754 299.682 101.11L357.9 42.8916C358.906 43.6187 359.903 44.355 360.894 45.1035Z" fill="#72C4FF"/>
<path d="M108.506 310.851C109.24 311.851 109.982 312.845 110.74 313.824L53.3467 371.217C52.5522 370.275 51.7607 369.33 50.9814 368.376L108.506 310.851Z" fill="#72C4FF"/>
<path d="M371.216 53.3466L313.823 110.74C312.842 109.982 311.851 109.236 310.848 108.506L368.376 50.9783C369.33 51.7575 370.275 52.549 371.216 53.3466Z" fill="#72C4FF"/>
<path d="M116.777 321.144C117.587 322.067 118.409 322.978 119.247 323.88L62.1328 380.994C61.2861 380.104 60.4486 379.208 59.6172 378.306L116.777 321.144Z" fill="#72C4FF"/>
<path d="M380.994 62.1327L323.88 119.247C322.978 118.409 322.067 117.587 321.144 116.777L378.306 59.614C379.208 60.4454 380.104 61.2829 380.994 62.1327Z" fill="#72C4FF"/>
<path d="M125.89 330.596C126.782 331.443 127.684 332.277 128.598 333.096L71.46 390.235C70.5642 389.397 69.6746 388.551 68.791 387.698L125.89 330.596Z" fill="#72C4FF"/>
<path d="M390.238 71.4561L333.097 128.598C332.278 127.683 331.443 126.781 330.597 125.889L387.698 68.7871C388.551 69.6706 389.398 70.5603 390.238 71.4561Z" fill="#72C4FF"/>
<path d="M135.845 339.21C136.814 339.977 137.796 340.732 138.787 341.471L81.3232 398.935C80.3753 398.149 79.4365 397.355 78.5039 396.551L135.845 339.21Z" fill="#72C4FF"/>
<path d="M398.939 81.3219L341.475 138.785C340.733 137.795 339.978 136.813 339.211 135.84L396.552 78.4995C397.356 79.4321 398.153 80.374 398.939 81.3219Z" fill="#72C4FF"/>
<path d="M146.655 346.963C147.707 347.653 148.772 348.325 149.846 348.978L91.7286 407.095C90.7315 406.359 89.7406 405.613 88.7559 404.862L146.655 346.963Z" fill="#72C4FF"/>
<path d="M407.095 91.7281L348.981 149.842C348.325 148.768 347.653 147.704 346.966 146.652L404.862 88.7554C405.617 89.7401 406.359 90.7311 407.095 91.7281Z" fill="#72C4FF"/>
<path d="M158.366 353.819C159.507 354.421 160.66 355.004 161.82 355.571L102.694 414.694C101.644 414.013 100.601 413.32 99.5645 412.621L158.366 353.819Z" fill="#72C4FF"/>
<path d="M414.695 102.693L355.572 161.816C355.007 160.656 354.421 159.503 353.823 158.362L412.621 99.5605C413.321 100.597 414.014 101.641 414.695 102.693Z" fill="#72C4FF"/>
<path d="M171.047 359.7C172.287 360.207 173.535 360.691 174.793 361.161L114.237 421.717C113.133 421.091 112.035 420.456 110.942 419.808L171.047 359.7Z" fill="#72C4FF"/>
<path d="M421.719 114.234L361.16 174.793C360.694 173.535 360.206 172.283 359.703 171.044L419.811 110.939C420.452 112.031 421.091 113.129 421.719 114.234Z" fill="#72C4FF"/>
<path d="M184.822 364.492C186.172 364.891 187.534 365.265 188.902 365.618L126.383 428.137C125.22 427.567 124.063 426.987 122.916 426.398L184.822 364.492Z" fill="#72C4FF"/>
<path d="M428.137 126.382L365.621 188.899C365.268 187.53 364.891 186.168 364.495 184.818L426.398 122.913C426.99 124.063 427.567 125.22 428.137 126.382Z" fill="#72C4FF"/>
<path d="M199.858 368.023C201.343 368.287 202.837 368.529 204.34 368.744L139.17 433.914C137.946 433.405 136.731 432.889 135.52 432.362L199.858 368.023Z" fill="#72C4FF"/>
<path d="M433.915 139.169L368.748 204.336C368.534 202.832 368.291 201.338 368.024 199.854L432.36 135.518C432.891 136.727 433.406 137.945 433.915 139.169Z" fill="#72C4FF"/>
<path d="M216.442 370.002C218.095 370.107 219.755 370.18 221.424 370.226L152.649 439.001C151.361 438.562 150.075 438.108 148.796 437.648L216.442 370.002Z" fill="#72C4FF"/>
<path d="M439 152.649L370.229 221.421C370.183 219.752 370.109 218.092 370.005 216.439L437.647 148.796C438.108 150.075 438.562 151.361 439 152.649Z" fill="#72C4FF"/>
<path d="M235.043 369.968C236.952 369.845 238.848 369.686 240.731 369.483L166.885 443.329C165.523 442.967 164.164 442.587 162.814 442.197L235.043 369.968Z" fill="#72C4FF"/>
<path d="M443.334 166.884L369.488 240.727C369.691 238.84 369.85 236.944 369.973 235.036L442.199 162.813C442.589 164.163 442.969 165.522 443.334 166.884Z" fill="#72C4FF"/>
<path d="M256.658 366.916C258.98 366.407 261.281 365.842 263.56 365.219L181.959 446.821C180.514 446.542 179.075 446.244 177.64 445.931L256.658 366.916Z" fill="#72C4FF"/>
<path d="M446.821 181.96L365.226 263.555C365.845 261.275 366.41 258.975 366.919 256.652L445.931 177.64C446.244 179.076 446.542 180.515 446.821 181.96Z" fill="#72C4FF"/>
<path d="M284.309 357.829C287.809 356.274 291.239 354.58 294.586 352.758L197.986 449.358C196.449 449.171 194.918 448.971 193.391 448.751L284.309 357.829Z" fill="#72C4FF"/>
<path d="M449.358 197.989L352.765 294.579C354.587 291.232 356.28 287.806 357.833 284.305L448.751 193.387C448.969 194.915 449.171 196.449 449.358 197.989Z" fill="#72C4FF"/>
<path d="M450.785 215.126L215.126 450.784C213.479 450.711 211.835 450.619 210.196 450.508L450.509 210.196C450.619 211.834 450.711 213.478 450.785 215.126Z" fill="#72C4FF"/>
<path d="M451 228.271C450.979 230.053 450.939 231.827 450.874 233.6L233.601 450.873C231.831 450.937 230.055 450.977 228.272 450.999L451 228.271Z" fill="#72C4FF"/>
<path d="M449.914 247.924C449.721 249.884 449.503 251.838 449.257 253.783L253.784 449.257C251.839 449.502 249.885 449.72 247.925 449.913L449.914 247.924Z" fill="#72C4FF"/>
<path d="M446.68 269.721C446.239 271.942 445.766 274.148 445.26 276.347L276.348 445.259C274.152 445.765 271.943 446.238 269.722 446.679L446.68 269.721Z" fill="#72C4FF"/>
<path d="M440.161 294.806C439.306 297.469 438.397 300.11 437.44 302.73L302.732 437.439C300.112 438.396 297.47 439.304 294.808 440.16L440.161 294.806Z" fill="#72C4FF"/>
<path d="M427.337 326.193C425.435 329.997 423.429 333.737 421.324 337.412L337.413 421.324C333.741 423.428 330.001 425.431 326.2 427.33L427.337 326.193Z" fill="#72C4FF"/>
</g>
</svg>
