<svg width="579" height="535" viewBox="0 0 579 535" fill="none" xmlns="http://www.w3.org/2000/svg">
<g opacity="0.6">
<path d="M154.176 -11.6289L33.8579 109.194C36.6514 103.899 39.606 98.6992 42.7139 93.6056L138.66 -2.74363C143.728 -5.86058 148.903 -8.8276 154.176 -11.6289Z" fill="#1551BB"/>
<path d="M196.055 -29.8057L15.7607 151.246C16.9591 147.71 18.2242 144.211 19.5562 140.739L185.588 -25.9943C189.045 -27.3318 192.534 -28.6023 196.055 -29.8057Z" fill="#1551BB"/>
<path d="M228.869 -38.8843L6.71924 184.198C7.33216 181.291 7.99224 178.398 8.69553 175.522L220.225 -36.8997C223.089 -37.6059 225.973 -38.2688 228.869 -38.8843Z" fill="#1551BB"/>
<path d="M257.213 -43.4692L2.1543 212.661C2.43326 210.104 2.74758 207.556 3.09726 205.019L249.603 -42.5223C252.129 -42.8735 254.667 -43.1891 257.213 -43.4692Z" fill="#1551BB"/>
<path d="M282.673 -45.1577L0.472656 238.224C0.523733 235.908 0.602313 233.596 0.708396 231.296L275.766 -44.921C278.061 -45.0275 280.363 -45.1064 282.673 -45.1577Z" fill="#1551BB"/>
<path d="M306.043 -44.7515L0.877195 261.696C0.755396 259.569 0.657171 257.435 0.58252 255.296L299.67 -45.0474C301.799 -44.9724 303.925 -44.8738 306.043 -44.7515Z" fill="#1551BB"/>
<path d="M2.21289 277.533L130.188 149.024C127.348 153.762 124.715 158.639 122.299 163.642L2.93976 283.502C2.68044 281.518 2.43684 279.529 2.21289 277.533Z" fill="#1551BB"/>
<path d="M327.758 -42.6802L208.399 77.1802C203.417 79.6067 198.557 82.2502 193.838 85.1028L321.813 -43.4102C323.801 -43.1853 325.782 -42.9406 327.758 -42.6802Z" fill="#1551BB"/>
<path d="M5.29688 298.318L111.443 191.723C110.551 194.741 109.73 197.795 108.991 200.88L6.397 303.905C6.00802 302.051 5.64656 300.188 5.29688 298.318Z" fill="#1551BB"/>
<path d="M348.079 -39.2117L245.481 63.8172C242.408 64.559 239.367 65.3836 236.361 66.2792L342.507 -40.3125C344.37 -39.9653 346.228 -39.5984 348.079 -39.2117Z" fill="#1551BB"/>
<path d="M9.62695 317.844L105.192 221.877C104.886 224.351 104.63 226.837 104.43 229.338L11.0414 323.119C10.5542 321.367 10.0827 319.608 9.62695 317.844Z" fill="#1551BB"/>
<path d="M367.209 -34.5445L273.821 59.2362C271.33 59.4374 268.855 59.6939 266.391 60.0016L361.956 -35.9648C363.716 -35.5072 365.465 -35.0337 367.209 -34.5445Z" fill="#1551BB"/>
<path d="M103.81 247.144C103.833 249.318 103.896 251.484 104.002 253.642L16.7472 341.264C16.1657 339.607 15.5999 337.946 15.0459 336.277L103.81 247.144Z" fill="#1551BB"/>
<path d="M385.279 -28.816L298.024 58.8057C295.875 58.6992 293.718 58.6361 291.549 58.6124L380.313 -30.5244C381.975 -29.972 383.629 -29.3999 385.279 -28.816Z" fill="#1551BB"/>
<path d="M105.4 269.421C105.652 271.374 105.938 273.323 106.257 275.257L23.402 358.46C22.738 356.889 22.0857 355.315 21.4453 353.729L105.4 269.421Z" fill="#1551BB"/>
<path d="M402.401 -22.1313L319.546 61.0714C317.621 60.7519 315.68 60.4638 313.735 60.2113L397.686 -24.0962C399.266 -23.457 400.837 -22.7981 402.401 -22.1313Z" fill="#1551BB"/>
<path d="M109.168 289.512C109.604 291.292 110.064 293.063 110.555 294.819L30.9341 374.771C30.1876 373.283 29.4568 371.784 28.7417 370.281L109.168 289.512Z" fill="#1551BB"/>
<path d="M418.644 -14.5679L339.027 65.3877C337.278 64.8945 335.514 64.4329 333.742 63.9949L414.173 -16.7734C415.67 -16.0514 417.163 -15.3175 418.644 -14.5679Z" fill="#1551BB"/>
<path d="M114.685 307.851C115.267 309.484 115.876 311.11 116.504 312.719L39.2796 390.268C38.4624 388.856 37.653 387.431 36.8594 386.003L114.685 307.851Z" fill="#1551BB"/>
<path d="M434.078 -6.18774L356.853 71.3611C355.25 70.7299 353.631 70.1183 352.005 69.5344L429.831 -8.61816C431.253 -7.82117 432.671 -7.01235 434.078 -6.18774Z" fill="#1551BB"/>
<path d="M121.675 324.709C122.386 326.217 123.121 327.712 123.875 329.196L48.3912 404.993C47.5032 403.651 46.6271 402.302 45.7627 400.941L121.675 324.709Z" fill="#1551BB"/>
<path d="M448.744 2.96136L373.26 78.7624C371.783 78.0048 370.294 77.267 368.789 76.5529L444.705 0.317871C446.061 1.18588 447.409 2.06968 448.744 2.96136Z" fill="#1551BB"/>
<path d="M129.964 340.263C130.793 341.655 131.638 343.036 132.502 344.405L58.2361 418.983C57.2814 417.709 56.3384 416.427 55.4072 415.133L129.964 340.263Z" fill="#1551BB"/>
<path d="M462.672 12.8491L388.406 87.427C387.042 86.559 385.667 85.7068 384.276 84.8782L458.837 10.0044C460.126 10.9395 461.403 11.8864 462.672 12.8491Z" fill="#1551BB"/>
<path d="M139.437 354.624C140.376 355.911 141.327 357.189 142.298 358.447L68.7939 432.26C67.7763 431.049 66.7626 429.833 65.7646 428.606L139.437 354.624Z" fill="#1551BB"/>
<path d="M475.893 23.4507L402.39 97.2632C401.132 96.2887 399.863 95.3299 398.579 94.3909L472.255 20.4048C473.477 21.4069 474.687 22.4249 475.893 23.4507Z" fill="#1551BB"/>
<path d="M150.029 367.861C151.067 369.049 152.12 370.221 153.192 371.381L80.046 444.834C78.9616 443.69 77.889 442.538 76.8242 441.378L150.029 367.861Z" fill="#1551BB"/>
<path d="M488.414 34.7505L415.268 108.204C414.113 107.127 412.946 106.069 411.764 105.028L484.973 31.5112C486.128 32.5805 487.275 33.6576 488.414 34.7505Z" fill="#1551BB"/>
<path d="M161.699 380.017C162.843 381.106 163.998 382.179 165.169 383.233L91.991 456.718C90.8437 455.641 89.7043 454.552 88.5728 453.455L161.699 380.017Z" fill="#1551BB"/>
<path d="M500.253 46.7407L427.072 120.23C426.023 119.054 424.954 117.894 423.87 116.746L497 43.3081C498.092 44.4444 499.177 45.5886 500.253 46.7407Z" fill="#1551BB"/>
<path d="M174.449 391.096C175.691 392.083 176.948 393.053 178.217 394.004L104.623 467.908C103.409 466.897 102.207 465.876 101.012 464.842L174.449 391.096Z" fill="#1551BB"/>
<path d="M511.396 59.4297L437.802 133.333C436.851 132.058 435.885 130.796 434.902 129.545L508.339 55.7998C509.369 56.9992 510.39 58.2105 511.396 59.4297Z" fill="#1551BB"/>
<path d="M188.294 401.067C189.642 401.955 191.005 402.819 192.38 403.659L117.949 478.403C116.672 477.456 115.403 476.497 114.142 475.53L188.294 401.067Z" fill="#1551BB"/>
<path d="M521.842 72.8129L447.415 147.553C446.575 146.172 445.714 144.803 444.834 143.449L518.982 68.9897C519.949 70.2563 520.899 71.5307 521.842 72.8129Z" fill="#1551BB"/>
<path d="M203.292 409.885C204.754 410.658 206.231 411.408 207.716 412.138L131.992 488.176C130.649 487.3 129.313 486.408 127.985 485.509L203.292 409.885Z" fill="#1551BB"/>
<path d="M531.576 86.9141L455.856 162.952C455.133 161.46 454.383 159.977 453.617 158.509L528.92 82.8857C529.816 84.2193 530.704 85.5608 531.576 86.9141Z" fill="#1551BB"/>
<path d="M219.534 417.449C221.121 418.1 222.72 418.723 224.331 419.327L146.776 497.207C145.362 496.402 143.955 495.586 142.557 494.753L219.534 417.449Z" fill="#1551BB"/>
<path d="M540.572 101.757L463.014 179.641C462.417 178.024 461.792 176.414 461.147 174.82L538.128 97.5195C538.95 98.9241 539.767 100.337 540.572 101.757Z" fill="#1551BB"/>
<path d="M237.175 423.611C238.904 424.124 240.649 424.606 242.401 425.059L162.332 505.465C160.843 504.731 159.362 503.985 157.892 503.228L237.175 423.611Z" fill="#1551BB"/>
<path d="M548.792 117.381L468.727 197.783C468.275 196.023 467.792 194.271 467.285 192.535L546.564 112.919C547.323 114.399 548.061 115.886 548.792 117.381Z" fill="#1551BB"/>
<path d="M256.432 428.153C258.333 428.492 260.247 428.804 262.172 429.08L178.708 512.894C177.141 512.239 175.585 511.577 174.033 510.898L256.432 428.153Z" fill="#1551BB"/>
<path d="M556.191 133.826L472.731 217.636C472.456 215.703 472.146 213.782 471.804 211.872L554.199 129.131C554.879 130.685 555.539 132.252 556.191 133.826Z" fill="#1551BB"/>
<path d="M277.671 430.698C279.789 430.832 281.914 430.926 284.052 430.986L195.971 519.436C194.321 518.872 192.675 518.288 191.037 517.696L277.671 430.698Z" fill="#1551BB"/>
<path d="M562.705 151.163L474.628 239.609C474.569 237.463 474.475 235.328 474.341 233.201L560.972 146.207C561.561 147.852 562.143 149.505 562.705 151.163Z" fill="#1551BB"/>
<path d="M301.493 430.654C303.937 430.497 306.365 430.291 308.778 430.031L214.203 525.003C212.458 524.538 210.718 524.048 208.989 523.547L301.493 430.654Z" fill="#1551BB"/>
<path d="M568.253 169.47L473.678 264.438C473.937 262.012 474.141 259.574 474.299 257.119L566.799 164.234C567.298 165.97 567.785 167.718 568.253 169.47Z" fill="#1551BB"/>
<path d="M329.177 426.728C332.151 426.073 335.098 425.347 338.017 424.546L233.51 529.493C231.659 529.134 229.816 528.751 227.978 528.349L329.177 426.728Z" fill="#1551BB"/>
<path d="M572.72 188.858L468.22 293.797C469.014 290.865 469.737 287.906 470.389 284.919L571.581 183.303C571.981 185.149 572.362 187 572.72 188.858Z" fill="#1551BB"/>
<path d="M364.589 415.042C369.072 413.042 373.465 410.864 377.751 408.52L254.035 532.756C252.067 532.516 250.106 532.259 248.149 531.975L364.589 415.042Z" fill="#1551BB"/>
<path d="M575.97 209.473L452.261 333.698C454.595 329.393 456.764 324.986 458.752 320.484L575.192 203.555C575.471 205.52 575.73 207.493 575.97 209.473Z" fill="#1551BB"/>
<path d="M577.796 231.513L275.986 534.591C273.876 534.496 271.77 534.378 269.672 534.235L577.442 225.172C577.584 227.279 577.702 229.394 577.796 231.513Z" fill="#1551BB"/>
<path d="M578.072 248.419C578.044 250.712 577.993 252.992 577.911 255.273L299.647 534.705C297.38 534.788 295.105 534.839 292.822 534.867L578.072 248.419Z" fill="#1551BB"/>
<path d="M576.681 273.694C576.433 276.216 576.154 278.729 575.84 281.23L325.496 532.626C323.005 532.941 320.502 533.222 317.991 533.47L576.681 273.694Z" fill="#1551BB"/>
<path d="M572.539 301.727C571.974 304.584 571.369 307.42 570.72 310.249L354.393 527.485C351.58 528.136 348.751 528.743 345.907 529.312L572.539 301.727Z" fill="#1551BB"/>
<path d="M564.19 333.989C563.094 337.414 561.931 340.811 560.705 344.18L388.182 517.427C384.827 518.658 381.444 519.826 378.034 520.927L564.19 333.989Z" fill="#1551BB"/>
<path d="M547.767 374.356C545.331 379.248 542.762 384.058 540.066 388.784L432.6 496.702C427.897 499.408 423.108 501.985 418.24 504.427L547.767 374.356Z" fill="#1551BB"/>
</g>
</svg>
