<svg width="226" height="451" viewBox="0 0 226 451" fill="none" xmlns="http://www.w3.org/2000/svg">
<g opacity="0.2">
<path d="M13.5945 0.315781L-224.684 238.594C-224.779 236.941 -224.856 235.281 -224.914 233.618L8.61853 0.0856934C10.2813 0.143982 11.941 0.220678 13.5945 0.315781Z" fill="#72C4FF"/>
<path d="M30.5505 1.92668L-62.6472 95.1244C-66.5372 97.0111 -70.3321 99.0666 -74.0166 101.285L25.9088 1.35913C27.4612 1.534 29.0073 1.7242 30.5505 1.92668Z" fill="#72C4FF"/>
<path d="M46.4162 4.62326L-33.694 84.7336C-36.0931 85.3103 -38.4676 85.9515 -40.8145 86.6479L42.0661 3.76733C43.5202 4.0373 44.9713 4.32261 46.4162 4.62326Z" fill="#72C4FF"/>
<path d="M61.3553 8.25237L-11.564 81.1717C-13.509 81.3282 -15.4417 81.5276 -17.3652 81.7669L57.2536 7.14795C58.628 7.50382 59.9932 7.87196 61.3553 8.25237Z" fill="#72C4FF"/>
<path d="M75.4636 12.7065L7.33313 80.837C5.65502 80.7542 3.97079 80.7051 2.27734 80.6867L71.5858 11.3782C72.8835 11.8077 74.1751 12.2525 75.4636 12.7065Z" fill="#72C4FF"/>
<path d="M88.8323 17.904L24.1379 82.5985C22.6347 82.35 21.1192 82.126 19.6006 81.9297L85.1509 16.3762C86.3842 16.8732 87.6113 17.3855 88.8323 17.904Z" fill="#72C4FF"/>
<path d="M101.514 23.7847L39.3479 85.9544C37.9827 85.5709 36.6053 85.212 35.2217 84.8714L98.0233 22.0698C99.1921 22.6312 100.358 23.2019 101.514 23.7847Z" fill="#72C4FF"/>
<path d="M113.566 30.3009L53.2681 90.5992C52.0164 90.1083 50.7525 89.6328 49.4824 89.1788L110.25 28.4111C111.361 29.0308 112.468 29.6597 113.566 30.3009Z" fill="#72C4FF"/>
<path d="M125.018 37.4151L66.0791 96.3543C64.9256 95.7652 63.7629 95.1916 62.5879 94.6363L121.865 35.3596C122.923 36.0345 123.975 36.7217 125.018 37.4151Z" fill="#72C4FF"/>
<path d="M135.893 45.1035L77.905 103.092C76.8404 102.417 75.7667 101.754 74.6807 101.11L132.899 42.8916C133.905 43.6187 134.902 44.355 135.893 45.1035Z" fill="#72C4FF"/>
<path d="M146.215 53.3466L88.8225 110.74C87.8408 109.982 86.8499 109.236 85.8467 108.506L143.375 50.9783C144.329 51.7575 145.274 52.549 146.215 53.3466Z" fill="#72C4FF"/>
<path d="M155.993 62.1327L98.8791 119.247C97.9772 118.409 97.066 117.587 96.1426 116.777L153.305 59.614C154.207 60.4454 155.103 61.2829 155.993 62.1327Z" fill="#72C4FF"/>
<path d="M165.237 71.4561L108.096 128.598C107.277 127.683 106.442 126.781 105.596 125.889L162.697 68.7871C163.55 69.6706 164.397 70.5603 165.237 71.4561Z" fill="#72C4FF"/>
<path d="M173.938 81.3219L116.474 138.785C115.732 137.795 114.977 136.813 114.21 135.84L171.551 78.4995C172.355 79.4321 173.152 80.374 173.938 81.3219Z" fill="#72C4FF"/>
<path d="M182.094 91.7281L123.98 149.842C123.324 148.768 122.652 147.704 121.965 146.652L179.861 88.7554C180.616 89.7401 181.358 90.7311 182.094 91.7281Z" fill="#72C4FF"/>
<path d="M189.694 102.693L130.571 161.816C130.006 160.656 129.42 159.503 128.822 158.362L187.62 99.5605C188.32 100.597 189.013 101.641 189.694 102.693Z" fill="#72C4FF"/>
<path d="M196.718 114.234L136.159 174.793C135.693 173.535 135.205 172.283 134.702 171.044L194.81 110.939C195.451 112.031 196.09 113.129 196.718 114.234Z" fill="#72C4FF"/>
<path d="M203.136 126.382L140.62 188.899C140.267 187.53 139.89 186.168 139.494 184.818L201.397 122.913C201.989 124.063 202.566 125.22 203.136 126.382Z" fill="#72C4FF"/>
<path d="M208.914 139.169L143.747 204.336C143.533 202.832 143.29 201.338 143.023 199.854L207.359 135.518C207.89 136.727 208.405 137.945 208.914 139.169Z" fill="#72C4FF"/>
<path d="M213.999 152.649L145.228 221.421C145.182 219.752 145.108 218.092 145.004 216.439L212.647 148.796C213.107 150.075 213.561 151.361 213.999 152.649Z" fill="#72C4FF"/>
<path d="M10.0425 369.968C11.9507 369.845 13.8466 369.686 15.7303 369.483L-58.1155 443.329C-59.4776 442.967 -60.8367 442.587 -62.1865 442.197L10.0425 369.968Z" fill="#72C4FF"/>
<path d="M218.333 166.884L144.487 240.727C144.69 238.84 144.849 236.944 144.972 235.036L217.198 162.813C217.588 164.163 217.968 165.522 218.333 166.884Z" fill="#72C4FF"/>
<path d="M31.6568 366.916C33.9792 366.407 36.28 365.842 38.5594 365.219L-43.0418 446.821C-44.4868 446.542 -45.9256 446.244 -47.3613 445.931L31.6568 366.916Z" fill="#72C4FF"/>
<path d="M221.82 181.96L140.225 263.555C140.844 261.275 141.409 258.975 141.918 256.652L220.93 177.64C221.243 179.076 221.541 180.515 221.82 181.96Z" fill="#72C4FF"/>
<path d="M59.3079 357.829C62.8083 356.274 66.2381 354.58 69.5852 352.758L-27.0147 449.358C-28.5517 449.171 -30.0826 448.971 -31.6104 448.751L59.3079 357.829Z" fill="#72C4FF"/>
<path d="M224.357 197.989L127.764 294.579C129.586 291.232 131.279 287.806 132.832 284.305L223.75 193.387C223.968 194.915 224.17 196.449 224.357 197.989Z" fill="#72C4FF"/>
<path d="M225.784 215.126L-9.87468 450.784C-11.5221 450.711 -13.1665 450.619 -14.8047 450.508L225.508 210.196C225.618 211.834 225.71 213.478 225.784 215.126Z" fill="#72C4FF"/>
<path d="M225.999 228.271C225.978 230.053 225.938 231.827 225.873 233.6L8.60031 450.873C6.83017 450.937 5.05389 450.977 3.27148 450.999L225.999 228.271Z" fill="#72C4FF"/>
<path d="M224.913 247.924C224.72 249.884 224.502 251.838 224.256 253.783L28.7834 449.257C26.8384 449.502 24.8842 449.72 22.9238 449.913L224.913 247.924Z" fill="#72C4FF"/>
<path d="M221.679 269.721C221.238 271.942 220.765 274.148 220.259 276.347L51.3472 445.259C49.1506 445.765 46.9418 446.238 44.7207 446.679L221.679 269.721Z" fill="#72C4FF"/>
<path d="M215.16 294.806C214.305 297.469 213.396 300.11 212.439 302.73L77.7308 437.439C75.1109 438.396 72.4695 439.304 69.8066 440.16L215.16 294.806Z" fill="#72C4FF"/>
<path d="M202.336 326.193C200.434 329.997 198.428 333.737 196.323 337.412L112.412 421.324C108.74 423.428 105 425.431 101.199 427.33L202.336 326.193Z" fill="#72C4FF"/>
</g>
</svg>
