<svg width="127" height="27" viewBox="0 0 127 27" fill="none" xmlns="http://www.w3.org/2000/svg">
<path d="M9.4177 26.5269C7.46665 26.5269 5.79748 26.1306 4.40467 25.3271C3.01185 24.5291 1.94514 23.4174 1.19899 21.9919C0.452834 20.5665 0.0825195 18.9154 0.0825195 17.0387C0.0825195 15.1565 0.458355 13.4999 1.21003 12.0745C1.96171 10.6491 3.02843 9.53735 4.42125 8.73933C5.81406 7.94131 7.47218 7.53955 9.40664 7.53955C11.1145 7.53955 12.6068 7.84775 13.878 8.46415C15.1492 9.08055 16.1441 9.95012 16.8626 11.0673C17.5812 12.1901 17.957 13.5054 18.0012 15.0134H12.5018C12.3913 14.0723 12.0707 13.3348 11.5456 12.7955C11.0205 12.2616 10.3352 11.9919 9.49508 11.9919C8.81525 11.9919 8.21833 12.1791 7.70431 12.5588C7.1903 12.9386 6.79235 13.4999 6.50495 14.2374C6.21754 14.9749 6.07936 15.8885 6.07936 16.9727C6.07936 18.0569 6.22307 18.976 6.50495 19.7245C6.78682 20.473 7.1903 21.0343 7.70431 21.4141C8.21833 21.7938 8.81525 21.9809 9.49508 21.9809C10.0423 21.9809 10.5231 21.8654 10.9432 21.6342C11.3632 21.4031 11.7114 21.0618 11.9823 20.6105C12.2531 20.1593 12.4299 19.6089 12.5018 18.965H18.0012C17.9459 20.484 17.5646 21.8103 16.8626 22.9441C16.1607 24.0778 15.1769 24.9584 13.9167 25.5858C12.651 26.2132 11.1532 26.5269 9.4177 26.5269Z" fill="white"/>
<path d="M23.965 5.63509C23.136 5.63509 22.4285 5.35991 21.8371 4.81506C21.2457 4.2702 20.9473 3.60978 20.9473 2.83377C20.9473 2.06877 21.2457 1.40834 21.8371 0.863489C22.4285 0.318635 23.1415 0.043457 23.965 0.043457C24.7996 0.043457 25.5126 0.318635 26.0985 0.863489C26.6843 1.40834 26.9828 2.06877 26.9828 2.83377C26.9828 3.60978 26.6899 4.2702 26.0985 4.81506C25.5071 5.35991 24.7996 5.63509 23.965 5.63509ZM21.0136 26.18V7.77598H26.8944V26.1744H21.0136V26.18Z" fill="white"/>
<path d="M30.625 26.1801V7.77611H36.34V11.1278H36.5334C36.8706 9.9115 37.4177 9.00891 38.1805 8.41453C38.9432 7.82014 39.8275 7.52295 40.839 7.52295C41.1098 7.52295 41.3917 7.53946 41.6791 7.57798C41.9665 7.61101 42.2373 7.66604 42.486 7.73759V12.8284C42.2042 12.7348 41.8394 12.6578 41.3862 12.6027C40.9329 12.5477 40.5295 12.5202 40.1757 12.5202C39.4793 12.5202 38.8492 12.6743 38.291 12.9825C37.7328 13.2907 37.2961 13.7145 36.9811 14.2648C36.6661 14.8097 36.5058 15.4536 36.5058 16.1856V26.1746H30.625V26.1801Z" fill="white"/>
<path d="M52.5564 26.5269C50.6053 26.5269 48.9361 26.1306 47.5433 25.3271C46.1505 24.5291 45.0838 23.4174 44.3376 21.9919C43.5915 20.5665 43.2212 18.9154 43.2212 17.0387C43.2212 15.1565 43.597 13.4999 44.3487 12.0745C45.1004 10.6491 46.1671 9.53735 47.5599 8.73933C48.9527 7.94131 50.6108 7.53955 52.5453 7.53955C54.2532 7.53955 55.7455 7.84775 57.0167 8.46415C58.2879 9.08055 59.2828 9.95012 60.0013 11.0673C60.7198 12.1901 61.0956 13.5054 61.1398 15.0134H55.6404C55.5299 14.0723 55.2093 13.3348 54.6843 12.7955C54.1592 12.2616 53.4738 11.9919 52.6337 11.9919C51.9539 11.9919 51.357 12.1791 50.843 12.5588C50.329 12.9386 49.931 13.4999 49.6436 14.2374C49.3562 14.9749 49.218 15.8885 49.218 16.9727C49.218 18.0569 49.3617 18.976 49.6436 19.7245C49.9255 20.473 50.329 21.0343 50.843 21.4141C51.357 21.7938 51.9539 21.9809 52.6337 21.9809C53.1809 21.9809 53.6618 21.8654 54.0818 21.6342C54.5019 21.4031 54.8501 21.0618 55.1209 20.6105C55.3917 20.1593 55.5686 19.6089 55.6404 18.965H61.1398C61.0846 20.484 60.7032 21.8103 60.0013 22.9441C59.2993 24.0778 58.3155 24.9584 57.0554 25.5858C55.7897 26.2132 54.2918 26.5269 52.5564 26.5269Z" fill="white"/>
<path d="M76.0792 18.2382V7.78138H81.9489V26.1798H76.3445V22.7566H76.1511C75.7421 23.8849 75.0457 24.7764 74.0619 25.4314C73.078 26.0918 71.8952 26.422 70.508 26.422C69.2478 26.422 68.1424 26.1358 67.1862 25.5579C66.23 24.9856 65.4894 24.1765 64.9588 23.1419C64.4282 22.1072 64.1629 20.8964 64.1519 19.504V7.77588H70.0326V18.3538C70.0382 19.3499 70.3035 20.1369 70.8285 20.7148C71.3481 21.2872 72.0611 21.5789 72.9564 21.5789C73.5423 21.5789 74.0674 21.4468 74.5372 21.1881C75.007 20.9294 75.3773 20.5497 75.6536 20.0489C75.9355 19.5535 76.0792 18.9481 76.0792 18.2382Z" fill="white"/>
<path d="M91.5717 1.64502V26.18H85.6909V1.64502H91.5717Z" fill="white"/>
<path d="M100.509 26.488C99.3317 26.488 98.2871 26.2899 97.3751 25.8936C96.4631 25.4974 95.7446 24.8975 95.2196 24.0995C94.6945 23.2959 94.4292 22.2888 94.4292 21.0725C94.4292 20.0488 94.6116 19.1903 94.9708 18.4858C95.3301 17.7814 95.8275 17.2145 96.4631 16.7742C97.0988 16.3339 97.8283 16.0037 98.6519 15.7725C99.4754 15.5469 100.36 15.3928 101.299 15.3102C102.349 15.2167 103.195 15.1121 103.836 15.002C104.477 14.892 104.947 14.7379 105.24 14.5342C105.533 14.3306 105.677 14.0389 105.677 13.6647V13.6041C105.677 12.9877 105.467 12.5144 105.041 12.1787C104.616 11.843 104.041 11.6779 103.322 11.6779C102.543 11.6779 101.918 11.843 101.443 12.1787C100.968 12.5144 100.669 12.9767 100.542 13.5711L95.1145 13.3785C95.2748 12.2613 95.6894 11.2596 96.3581 10.379C97.0269 9.49847 97.9499 8.79951 99.1272 8.29319C100.304 7.78686 101.714 7.53369 103.366 7.53369C104.544 7.53369 105.633 7.67128 106.627 7.94646C107.622 8.22164 108.49 8.6234 109.225 9.14624C109.96 9.66908 110.535 10.313 110.938 11.067C111.342 11.8265 111.546 12.6905 111.546 13.6647V26.1688H106.014V23.6041H105.87C105.539 24.226 105.124 24.7544 104.616 25.1837C104.107 25.6129 103.51 25.9377 102.825 26.1523C102.139 26.3669 101.366 26.488 100.509 26.488ZM102.327 22.6575C102.963 22.6575 103.532 22.5309 104.041 22.2723C104.549 22.0191 104.958 21.6614 105.262 21.2101C105.566 20.7588 105.721 20.2359 105.721 19.6361V17.8859C105.55 17.974 105.351 18.051 105.113 18.1226C104.875 18.1941 104.616 18.2602 104.339 18.3262C104.063 18.3923 103.77 18.4473 103.471 18.4913C103.173 18.5408 102.891 18.5849 102.615 18.6234C102.062 18.7115 101.592 18.849 101.2 19.0307C100.813 19.2123 100.514 19.4544 100.31 19.7406C100.105 20.0323 100.006 20.379 100.006 20.7753C100.006 21.3807 100.227 21.8485 100.664 22.1677C101.1 22.4869 101.653 22.6575 102.327 22.6575Z" fill="white"/>
<path d="M115.139 26.1801V7.77611H120.854V11.1278H121.048C121.385 9.9115 121.932 9.00891 122.695 8.41453C123.457 7.82014 124.342 7.52295 125.353 7.52295C125.624 7.52295 125.906 7.53946 126.193 7.57798C126.481 7.61101 126.751 7.66604 127 7.73759V12.8284C126.718 12.7348 126.354 12.6578 125.9 12.6027C125.447 12.5477 125.044 12.5202 124.69 12.5202C123.994 12.5202 123.363 12.6743 122.805 12.9825C122.247 13.2907 121.81 13.7145 121.495 14.2648C121.18 14.8097 121.02 15.4536 121.02 16.1856V26.1746H115.139V26.1801Z" fill="white"/>
</svg>
