<svg width="61" height="40" viewBox="0 0 61 40" fill="none" xmlns="http://www.w3.org/2000/svg">
<path d="M40.132 0.00537109C36.4786 0.00537109 33.0519 0.979505 30.1004 2.68011C36.0973 6.13636 40.132 12.5921 40.132 19.9889H20.0688C20.0688 27.3857 24.1036 33.8414 30.1004 37.2921C33.0519 38.9927 36.4786 39.9668 40.132 39.9668C51.2193 39.9668 60.2007 31.018 60.2007 19.9834C60.2007 8.94868 51.2193 0.00537109 40.132 0.00537109Z" fill="#72C4FF"/>
<path d="M30.1003 2.68024C36.0971 6.13649 40.1319 12.5922 40.1319 19.989H20.0687C20.0687 27.3858 24.1034 33.8415 30.1003 37.2922C27.1488 38.9929 23.7221 39.967 20.0687 39.967C8.98145 39.967 0 31.0182 0 19.9835C0 8.94331 8.98697 0 20.0687 0C23.7221 0.00550358 27.1488 0.979638 30.1003 2.68024Z" fill="url(#paint0_linear_762_230)"/>
<g style="mix-blend-mode:overlay" opacity="0.3">
<path d="M20.0688 19.9888H40.1375L30.117 37.303C30.1115 37.303 30.106 37.2975 30.106 37.2975C24.1036 33.8413 20.0688 27.3856 20.0688 19.9888Z" fill="url(#paint1_linear_762_230)"/>
</g>
<g style="mix-blend-mode:overlay" opacity="0.5">
<path d="M20.0689 20.022C20.0689 27.4188 24.1036 33.8745 30.1005 37.3252C27.149 39.0258 23.7222 40 20.0689 40C16.421 40 12.9998 39.0258 10.0483 37.3307L20.0689 20.022Z" fill="url(#paint2_linear_762_230)"/>
</g>
<defs>
<linearGradient id="paint0_linear_762_230" x1="49.867" y1="-17.4921" x2="-3.71183" y2="48.5906" gradientUnits="userSpaceOnUse">
<stop stop-color="white"/>
<stop offset="1" stop-color="#B6B6B6"/>
</linearGradient>
<linearGradient id="paint1_linear_762_230" x1="30.1" y1="53.3062" x2="30.1" y2="20.5285" gradientUnits="userSpaceOnUse">
<stop offset="0.4935" stop-color="white"/>
<stop offset="0.5384" stop-color="#F3F3F3"/>
<stop offset="0.6207" stop-color="#D1D1D1"/>
<stop offset="0.731" stop-color="#9C9C9C"/>
<stop offset="0.8655" stop-color="#515151"/>
<stop offset="1"/>
</linearGradient>
<linearGradient id="paint2_linear_762_230" x1="13.9366" y1="46.7559" x2="25.7397" y2="27.4427" gradientUnits="userSpaceOnUse">
<stop stop-color="white" stop-opacity="0"/>
<stop offset="1"/>
</linearGradient>
</defs>
</svg>
