<svg width="202" height="309" viewBox="0 0 202 309" fill="none" xmlns="http://www.w3.org/2000/svg">
<g opacity="0.2">
<path d="M1.88426 3.57983L-125.421 130.885C-125.07 129.226 -124.691 127.575 -124.288 125.934L-3.06916 4.71237C-1.42778 4.30934 0.224861 3.93108 1.88426 3.57983Z" fill="#72C4FF"/>
<path d="M18.1276 0.963623L-128.037 147.128C-127.877 145.669 -127.697 144.214 -127.496 142.767L13.7663 1.504C15.2141 1.30361 16.6686 1.12348 18.1276 0.963623Z" fill="#72C4FF"/>
<path d="M32.7179 0L-129 161.716C-128.971 160.394 -128.926 159.075 -128.865 157.762L28.7597 0.135093C30.0746 0.0743013 31.394 0.0292702 32.7179 0Z" fill="#72C4FF"/>
<path d="M46.1101 0.231733L-128.768 175.11C-128.838 173.896 -128.894 172.678 -128.937 171.458L42.4581 0.0628662C43.6785 0.105646 44.8965 0.161935 46.1101 0.231733Z" fill="#72C4FF"/>
<path d="M58.5543 1.4141L-9.84567 69.8141C-12.7006 71.1988 -15.4858 72.7074 -18.1899 74.3352L55.1477 0.997559C56.287 1.1259 57.4218 1.26549 58.5543 1.4141Z" fill="#72C4FF"/>
<path d="M70.1984 3.39308L11.4036 62.188C9.64288 62.6112 7.90017 63.0818 6.17773 63.5929L67.0057 2.76489C68.073 2.96303 69.1379 3.17242 70.1984 3.39308Z" fill="#72C4FF"/>
<path d="M81.1631 6.05665L27.6459 59.5739C26.2184 59.6887 24.7999 59.8351 23.3882 60.0107L78.1528 5.24609C79.1614 5.50727 80.1634 5.77746 81.1631 6.05665Z" fill="#72C4FF"/>
<path d="M91.5173 9.32575L41.5148 59.3283C40.2832 59.2675 39.0471 59.2315 37.8042 59.218L88.6713 8.35083C89.6237 8.66605 90.5716 8.99252 91.5173 9.32575Z" fill="#72C4FF"/>
<path d="M101.329 13.1401L53.8481 60.6209C52.7448 60.4385 51.6326 60.2741 50.5181 60.13L98.627 12.0188C99.5321 12.3836 100.433 12.7596 101.329 13.1401Z" fill="#72C4FF"/>
<path d="M110.637 17.4561L65.0113 63.0839C64.0093 62.8025 62.9984 62.539 61.9829 62.2891L108.074 16.1975C108.932 16.6095 109.788 17.0283 110.637 17.4561Z" fill="#72C4FF"/>
<path d="M119.482 22.2385L75.2276 66.4929C74.309 66.1326 73.3814 65.7836 72.4492 65.4504L117.048 20.8516C117.863 21.3064 118.676 21.7679 119.482 22.2385Z" fill="#72C4FF"/>
<path d="M127.887 27.4597L84.6301 70.7166C83.7836 70.2843 82.9302 69.8633 82.0679 69.4557L125.572 25.9512C126.349 26.4465 127.121 26.9509 127.887 27.4597Z" fill="#72C4FF"/>
<path d="M135.868 33.1025L93.3093 75.6614C92.528 75.1661 91.7399 74.6797 90.9429 74.2069L133.671 31.4791C134.409 32.0127 135.141 32.5531 135.868 33.1025Z" fill="#72C4FF"/>
<path d="M143.444 39.1523L101.322 81.2744C100.602 80.7182 99.8744 80.1711 99.1382 79.6352L141.359 37.4141C142.06 37.986 142.753 38.5669 143.444 39.1523Z" fill="#72C4FF"/>
<path d="M150.62 45.6007L108.703 87.5179C108.041 86.9033 107.372 86.2999 106.694 85.7054L148.648 43.7522C149.31 44.3624 149.967 44.977 150.62 45.6007Z" fill="#72C4FF"/>
<path d="M157.405 52.4435L115.467 94.381C114.866 93.71 114.254 93.048 113.632 92.3928L155.54 50.4846C156.166 51.1331 156.788 51.786 157.405 52.4435Z" fill="#72C4FF"/>
<path d="M163.79 59.684L121.616 101.858C121.071 101.131 120.517 100.41 119.954 99.6964L162.038 57.6125C162.628 58.297 163.213 58.9882 163.79 59.684Z" fill="#72C4FF"/>
<path d="M169.776 67.3214L127.125 109.973C126.643 109.185 126.15 108.403 125.646 107.631L168.137 65.1396C168.691 65.8624 169.236 66.5897 169.776 67.3214Z" fill="#72C4FF"/>
<path d="M175.354 75.3687L131.962 118.761C131.547 117.91 131.117 117.063 130.678 116.225L173.832 73.0698C174.345 73.8309 174.854 74.5964 175.354 75.3687Z" fill="#72C4FF"/>
<path d="M180.509 83.8388L136.063 128.285C135.721 127.361 135.363 126.443 134.994 125.533L179.108 81.4207C179.579 82.2222 180.047 83.0283 180.509 83.8388Z" fill="#72C4FF"/>
<path d="M6.64458 267.509C7.63527 267.802 8.63496 268.077 9.63915 268.336L-36.2453 314.22C-37.0986 313.801 -37.9475 313.376 -38.7896 312.943L6.64458 267.509Z" fill="#72C4FF"/>
<path d="M185.22 92.755L139.338 138.637C139.079 137.633 138.802 136.633 138.511 135.643L183.943 90.2085C184.378 91.0528 184.801 91.9017 185.22 92.755Z" fill="#72C4FF"/>
<path d="M17.6801 270.101C18.7698 270.295 19.8663 270.473 20.9696 270.63L-26.8602 318.46C-27.7586 318.086 -28.6502 317.708 -29.5396 317.321L17.6801 270.101Z" fill="#72C4FF"/>
<path d="M189.46 102.139L141.633 149.967C141.475 148.864 141.297 147.767 141.102 146.677L188.319 99.46C188.708 100.347 189.087 101.241 189.46 102.139Z" fill="#72C4FF"/>
<path d="M29.8509 271.553C31.0645 271.63 32.2826 271.684 33.5074 271.718L-16.9679 322.193C-17.9136 321.871 -18.857 321.538 -19.7959 321.2L29.8509 271.553Z" fill="#72C4FF"/>
<path d="M193.192 112.033L142.719 162.506C142.685 161.281 142.631 160.063 142.555 158.85L192.199 109.205C192.537 110.144 192.87 111.087 193.192 112.033Z" fill="#72C4FF"/>
<path d="M43.5033 271.528C44.9037 271.438 46.2952 271.321 47.6777 271.173L-6.51952 325.37C-7.51921 325.104 -8.51664 324.825 -9.50732 324.539L43.5033 271.528Z" fill="#72C4FF"/>
<path d="M196.373 122.48L142.176 176.675C142.324 175.29 142.441 173.899 142.532 172.498L195.54 119.492C195.826 120.483 196.105 121.48 196.373 122.48Z" fill="#72C4FF"/>
<path d="M59.3664 269.288C61.0708 268.915 62.7594 268.5 64.4324 268.043L4.54324 327.932C3.48276 327.727 2.42677 327.509 1.37305 327.279L59.3664 269.288Z" fill="#72C4FF"/>
<path d="M198.932 133.544L139.047 193.429C139.502 191.756 139.916 190.068 140.29 188.363L198.279 130.374C198.508 131.428 198.727 132.484 198.932 133.544Z" fill="#72C4FF"/>
<path d="M79.6602 262.62C82.2292 261.478 84.7465 260.235 87.2029 258.898L16.3059 329.795C15.1779 329.657 14.0544 329.511 12.9331 329.349L79.6602 262.62Z" fill="#72C4FF"/>
<path d="M200.794 145.309L129.901 216.199C131.239 213.743 132.482 211.228 133.621 208.659L200.348 141.931C200.508 143.053 200.657 144.178 200.794 145.309Z" fill="#72C4FF"/>
<path d="M201.841 157.886L28.8858 330.841C27.6767 330.787 26.4699 330.72 25.2676 330.639L201.639 154.268C201.72 155.47 201.787 156.677 201.841 157.886Z" fill="#72C4FF"/>
<path d="M201.999 167.533C201.983 168.842 201.954 170.143 201.907 171.444L42.4446 330.906C41.1455 330.954 39.8418 330.983 38.5337 330.999L201.999 167.533Z" fill="#72C4FF"/>
<path d="M201.202 181.957C201.06 183.396 200.9 184.83 200.72 186.258L57.2575 329.72C55.83 329.9 54.3958 330.06 52.957 330.202L201.202 181.957Z" fill="#72C4FF"/>
<path d="M198.829 197.954C198.505 199.585 198.158 201.203 197.786 202.818L73.8179 326.786C72.2058 327.158 70.5847 327.504 68.9546 327.829L198.829 197.954Z" fill="#72C4FF"/>
<path d="M194.044 216.365C193.416 218.32 192.75 220.258 192.047 222.181L93.1815 321.047C91.2587 321.749 89.3201 322.416 87.3657 323.044L194.044 216.365Z" fill="#72C4FF"/>
<path d="M184.632 239.401C183.236 242.193 181.764 244.937 180.219 247.635L118.635 309.219C115.94 310.764 113.195 312.234 110.405 313.628L184.632 239.401Z" fill="#72C4FF"/>
</g>
</svg>
