<svg width="215" height="179" viewBox="0 0 215 179" fill="none" xmlns="http://www.w3.org/2000/svg">
<g opacity="0.1">
<path opacity="0.7" d="M146.308 118.621C146.308 119.99 145.198 121.1 143.829 121.1C142.459 121.1 141.349 119.99 141.349 118.621C141.349 117.252 142.459 116.142 143.829 116.142C145.198 116.142 146.308 117.252 146.308 118.621Z" fill="#0D3F98"/>
<path opacity="0.7" d="M169.205 118.625C169.205 119.994 168.095 121.104 166.726 121.104C165.356 121.104 164.247 119.994 164.247 118.625C164.247 117.256 165.356 116.146 166.726 116.146C168.095 116.142 169.205 117.252 169.205 118.625Z" fill="#0D3F98"/>
<path opacity="0.7" d="M192.103 118.625C192.103 119.994 190.993 121.104 189.624 121.104C188.255 121.104 187.145 119.994 187.145 118.625C187.145 117.256 188.255 116.146 189.624 116.146C190.993 116.142 192.103 117.252 192.103 118.625Z" fill="#0D3F98"/>
<path opacity="0.7" d="M215 118.625C215 119.994 213.89 121.104 212.521 121.104C211.152 121.104 210.042 119.994 210.042 118.625C210.042 117.256 211.152 116.146 212.521 116.146C213.89 116.146 215 117.252 215 118.625Z" fill="#0D3F98"/>
<path opacity="0.7" d="M123.41 118.621C123.41 119.99 122.3 121.1 120.931 121.1C119.561 121.1 118.452 119.99 118.452 118.621C118.452 117.252 119.561 116.142 120.931 116.142C122.3 116.142 123.41 117.252 123.41 118.621Z" fill="#0D3F98"/>
<path d="M139.892 4.57764e-05C161.165 4.57764e-05 178.472 17.3072 178.472 38.58C178.472 59.8528 161.165 77.16 139.892 77.16C118.619 77.16 101.312 59.8528 101.312 38.58C101.312 17.3072 118.619 4.57764e-05 139.892 4.57764e-05ZM139.892 72.9766C158.857 72.9766 174.284 57.5455 174.284 38.5842C174.284 19.6187 158.853 4.1918 139.892 4.1918C120.926 4.1918 105.499 19.6229 105.499 38.5842C105.499 57.5455 120.93 72.9766 139.892 72.9766Z" fill="#0D3F98"/>
<path d="M2.96079 178.332L141.281 40.032L138.32 37.0705L-0.000227469 175.371L2.96079 178.332Z" fill="#0D3F98"/>
</g>
</svg>
