<svg width="136" height="251" viewBox="0 0 136 251" fill="none" xmlns="http://www.w3.org/2000/svg">
<g opacity="0.2">
<path d="M84.8876 18.4395L18.4375 84.8895C19.9803 81.9775 21.6121 79.1175 23.3285 76.3161L76.3185 23.3262C79.1177 21.6119 81.9755 19.9801 84.8876 18.4395Z" fill="#72C4FF"/>
<path d="M108.017 8.44238L8.44287 108.017C9.1047 106.072 9.80342 104.148 10.539 102.238L102.236 10.5385C104.146 9.80294 106.073 9.10421 108.017 8.44238Z" fill="#72C4FF"/>
<path d="M126.139 3.44922L3.44873 126.14C3.78724 124.541 4.15179 122.95 4.54021 121.368L121.365 4.5407C122.947 4.15228 124.54 3.78773 126.139 3.44922Z" fill="#72C4FF"/>
<path d="M141.794 0.927979L0.927734 141.794C1.0818 140.388 1.2554 138.986 1.44852 137.591L137.591 1.44876C138.986 1.25564 140.388 1.08204 141.794 0.927979Z" fill="#72C4FF"/>
<path d="M155.855 -0.000732422L-0.000488281 155.853C0.0277209 154.579 0.0711197 153.308 0.129708 152.043L152.041 0.129464C153.308 0.0708756 154.579 0.0274768 155.855 -0.000732422Z" fill="#72C4FF"/>
<path d="M168.762 0.22256L0.222804 168.762C0.155536 167.592 0.101287 166.418 0.0600586 165.242L165.242 0.0598145C166.419 0.101043 167.592 0.155292 168.762 0.22256Z" fill="#72C4FF"/>
<path d="M0.960938 177.472L71.6402 106.795C70.0713 109.401 68.6175 112.083 67.283 114.835L1.36238 180.755C1.21916 179.664 1.08462 178.57 0.960938 177.472Z" fill="#72C4FF"/>
<path d="M180.755 1.36189L114.835 67.2825C112.083 68.617 109.399 70.0709 106.793 71.6398L177.472 0.960449C178.57 1.08414 179.664 1.21867 180.755 1.36189Z" fill="#72C4FF"/>
<path d="M2.66357 188.903L61.2867 130.278C60.7941 131.938 60.3406 133.618 59.9326 135.315L3.27116 191.976C3.05633 190.956 2.8567 189.932 2.66357 188.903Z" fill="#72C4FF"/>
<path d="M191.977 3.26923L135.314 59.9329C133.617 60.3408 131.937 60.7944 130.277 61.2869L188.9 2.66382C189.929 2.85477 190.955 3.05658 191.977 3.26923Z" fill="#72C4FF"/>
<path d="M5.05566 199.642L57.8351 146.863C57.6658 148.223 57.5248 149.59 57.4141 150.966L5.83684 202.543C5.56777 201.58 5.30738 200.612 5.05566 199.642Z" fill="#72C4FF"/>
<path d="M57.0711 160.759C57.0841 161.954 57.1189 163.146 57.1775 164.333L8.98744 212.523C8.66628 211.611 8.35381 210.698 8.04785 209.78L57.0711 160.759Z" fill="#72C4FF"/>
<path d="M57.9498 173.011C58.0887 174.085 58.2471 175.157 58.4228 176.22L12.6631 221.98C12.2964 221.116 11.9362 220.25 11.5825 219.378L57.9498 173.011Z" fill="#72C4FF"/>
<path d="M60.03 184.06C60.2709 185.039 60.5247 186.013 60.796 186.979L16.8222 230.95C16.4099 230.132 16.0063 229.308 15.6113 228.481L60.03 184.06Z" fill="#72C4FF"/>
<path d="M63.0774 194.146C63.3985 195.044 63.7349 195.938 64.0821 196.824L21.4319 239.474C20.9805 238.697 20.5335 237.914 20.0952 237.128L63.0774 194.146Z" fill="#72C4FF"/>
<path d="M66.9381 203.418C67.3309 204.247 67.7366 205.069 68.1533 205.885L26.4644 247.572C25.974 246.834 25.4901 246.092 25.0127 245.343L66.9381 203.418Z" fill="#72C4FF"/>
<path d="M71.5156 211.972C71.9735 212.738 72.44 213.498 72.9174 214.251L31.9012 255.267C31.3739 254.566 30.8531 253.861 30.3389 253.149L71.5156 211.972Z" fill="#72C4FF"/>
<path d="M76.7476 219.87C77.2662 220.578 77.7914 221.281 78.3273 221.973L37.7321 262.568C37.1701 261.902 36.6102 261.234 36.0591 260.559L76.7476 219.87Z" fill="#72C4FF"/>
<path d="M82.5973 227.151C83.1702 227.804 83.7517 228.448 84.3441 229.086L43.9463 269.484C43.3474 268.855 42.755 268.221 42.167 267.583L82.5973 227.151Z" fill="#72C4FF"/>
<path d="M89.0427 233.837C89.6741 234.436 90.3121 235.026 90.9587 235.605L50.5436 276.02C49.91 275.428 49.2807 274.829 48.6558 274.226L89.0427 233.837Z" fill="#72C4FF"/>
<path d="M96.0842 239.929C96.7699 240.472 97.4643 241.006 98.1652 241.529L57.5201 282.174C56.8495 281.618 56.1855 281.056 55.5259 280.488L96.0842 239.929Z" fill="#72C4FF"/>
<path d="M103.731 245.413C104.475 245.901 105.228 246.376 105.987 246.838L64.88 287.946C64.1748 287.425 63.4739 286.898 62.7773 286.366L103.731 245.413Z" fill="#72C4FF"/>
<path d="M112.014 250.263C112.821 250.688 113.637 251.1 114.457 251.502L72.6362 293.321C71.8941 292.839 71.1563 292.349 70.4229 291.854L112.014 250.263Z" fill="#72C4FF"/>
</g>
<g opacity="0.3">
<path opacity="0.7" d="M88.3491 97.8057C88.3491 96.5811 89.3421 95.5881 90.5696 95.5881C91.7942 95.5881 92.79 96.5811 92.79 97.8057C92.79 99.0332 91.7971 100.026 90.5696 100.026C89.3421 100.026 88.3491 99.0332 88.3491 97.8057Z" fill="#72C4FF"/>
<path opacity="0.7" d="M67.8589 97.8057C67.8589 96.5811 68.8519 95.5881 70.0793 95.5881C71.3039 95.5881 72.2998 96.5811 72.2998 97.8057C72.2998 99.0332 71.3068 100.026 70.0793 100.026C68.8519 100.026 67.8589 99.0332 67.8589 97.8057Z" fill="#72C4FF"/>
<path opacity="0.7" d="M47.3677 97.8057C47.3677 96.5811 48.3607 95.5881 49.5881 95.5881C50.8127 95.5881 51.8086 96.5811 51.8086 97.8057C51.8086 99.0332 50.8156 100.026 49.5881 100.026C48.3607 100.026 47.3677 99.0332 47.3677 97.8057Z" fill="#72C4FF"/>
<path opacity="0.7" d="M26.877 97.8057C26.877 96.5811 27.8699 95.5881 29.0974 95.5881C30.322 95.5881 31.3179 96.5811 31.3179 97.8057C31.3179 99.0332 30.3249 100.026 29.0974 100.026C27.8699 100.026 26.877 99.0332 26.877 97.8057Z" fill="#72C4FF"/>
<path opacity="0.7" d="M88.3491 116.609C88.3491 115.384 89.3421 114.391 90.5696 114.391C91.7942 114.391 92.79 115.384 92.79 116.609C92.79 117.836 91.7971 118.829 90.5696 118.829C89.3421 118.829 88.3491 117.836 88.3491 116.609Z" fill="#72C4FF"/>
<path opacity="0.7" d="M67.8589 116.609C67.8589 115.384 68.8519 114.391 70.0793 114.391C71.3039 114.391 72.2998 115.384 72.2998 116.609C72.2998 117.836 71.3068 118.829 70.0793 118.829C68.8519 118.829 67.8589 117.836 67.8589 116.609Z" fill="#72C4FF"/>
<path opacity="0.7" d="M47.3677 116.609C47.3677 115.384 48.3607 114.391 49.5881 114.391C50.8127 114.391 51.8086 115.384 51.8086 116.609C51.8086 117.836 50.8156 118.829 49.5881 118.829C48.3607 118.829 47.3677 117.836 47.3677 116.609Z" fill="#72C4FF"/>
<path opacity="0.7" d="M26.877 116.609C26.877 115.384 27.8699 114.391 29.0974 114.391C30.322 114.391 31.3179 115.384 31.3179 116.609C31.3179 117.836 30.3249 118.829 29.0974 118.829C27.8699 118.829 26.877 117.836 26.877 116.609Z" fill="#72C4FF"/>
<path opacity="0.7" d="M88.3491 135.411C88.3491 134.187 89.3421 133.191 90.5696 133.191C91.7942 133.191 92.79 134.184 92.79 135.411C92.79 136.639 91.7971 137.632 90.5696 137.632C89.3421 137.632 88.3491 136.636 88.3491 135.411Z" fill="#72C4FF"/>
<path opacity="0.7" d="M67.8589 135.411C67.8589 134.187 68.8519 133.191 70.0793 133.191C71.3039 133.191 72.2998 134.184 72.2998 135.411C72.2998 136.639 71.3068 137.632 70.0793 137.632C68.8519 137.632 67.8589 136.636 67.8589 135.411Z" fill="#72C4FF"/>
<path opacity="0.7" d="M47.3677 135.411C47.3677 134.187 48.3607 133.191 49.5881 133.191C50.8127 133.191 51.8086 134.184 51.8086 135.411C51.8086 136.639 50.8156 137.632 49.5881 137.632C48.3607 137.632 47.3677 136.636 47.3677 135.411Z" fill="#72C4FF"/>
<path opacity="0.7" d="M26.877 135.411C26.877 134.187 27.8699 133.191 29.0974 133.191C30.322 133.191 31.3179 134.184 31.3179 135.411C31.3179 136.639 30.3249 137.632 29.0974 137.632C27.8699 137.632 26.877 136.636 26.877 135.411Z" fill="#72C4FF"/>
<path opacity="0.7" d="M88.3491 154.212C88.3491 152.987 89.3421 151.991 90.5696 151.991C91.7942 151.991 92.79 152.984 92.79 154.212C92.79 155.436 91.7971 156.432 90.5696 156.432C89.3421 156.432 88.3491 155.439 88.3491 154.212Z" fill="#72C4FF"/>
<path opacity="0.7" d="M67.8589 154.212C67.8589 152.987 68.8519 151.991 70.0793 151.991C71.3039 151.991 72.2998 152.984 72.2998 154.212C72.2998 155.436 71.3068 156.432 70.0793 156.432C68.8519 156.432 67.8589 155.439 67.8589 154.212Z" fill="#72C4FF"/>
<path opacity="0.7" d="M47.3677 154.212C47.3677 152.987 48.3607 151.991 49.5881 151.991C50.8127 151.991 51.8086 152.984 51.8086 154.212C51.8086 155.436 50.8156 156.432 49.5881 156.432C48.3607 156.432 47.3677 155.439 47.3677 154.212Z" fill="#72C4FF"/>
<path opacity="0.7" d="M26.877 154.212C26.877 152.987 27.8699 151.991 29.0974 151.991C30.322 151.991 31.3179 152.984 31.3179 154.212C31.3179 155.436 30.3249 156.432 29.0974 156.432C27.8699 156.432 26.877 155.439 26.877 154.212Z" fill="#72C4FF"/>
<path opacity="0.7" d="M129.331 97.8057C129.331 96.5811 130.324 95.5881 131.551 95.5881C132.776 95.5881 133.771 96.5811 133.771 97.8057C133.771 99.0332 132.779 100.026 131.551 100.026C130.324 100.026 129.331 99.0332 129.331 97.8057Z" fill="#72C4FF"/>
<path opacity="0.7" d="M108.84 97.8057C108.84 96.5811 109.833 95.5881 111.061 95.5881C112.288 95.5881 113.281 96.5811 113.281 97.8057C113.281 99.0332 112.288 100.026 111.061 100.026C109.833 100.026 108.84 99.0332 108.84 97.8057Z" fill="#72C4FF"/>
<path opacity="0.7" d="M129.331 116.609C129.331 115.384 130.324 114.391 131.551 114.391C132.776 114.391 133.771 115.384 133.771 116.609C133.771 117.836 132.779 118.829 131.551 118.829C130.324 118.829 129.331 117.836 129.331 116.609Z" fill="#72C4FF"/>
<path opacity="0.7" d="M108.84 116.609C108.84 115.384 109.833 114.391 111.061 114.391C112.288 114.391 113.281 115.384 113.281 116.609C113.281 117.836 112.288 118.829 111.061 118.829C109.833 118.829 108.84 117.836 108.84 116.609Z" fill="#72C4FF"/>
<path opacity="0.7" d="M88.3491 60.2171C88.3491 58.9925 89.3421 57.9995 90.5696 57.9995C91.7942 57.9995 92.79 58.9925 92.79 60.2171C92.79 61.4445 91.7942 62.4375 90.5696 62.4375C89.3421 62.4375 88.3491 61.4445 88.3491 60.2171Z" fill="#72C4FF"/>
<path opacity="0.7" d="M67.8589 60.2171C67.8589 58.9925 68.8519 57.9995 70.0793 57.9995C71.3039 57.9995 72.2998 58.9925 72.2998 60.2171C72.2998 61.4445 71.3068 62.4375 70.0793 62.4375C68.8519 62.4375 67.8589 61.4445 67.8589 60.2171Z" fill="#72C4FF"/>
<path opacity="0.7" d="M47.3677 60.2171C47.3677 58.9925 48.3607 57.9995 49.5881 57.9995C50.8127 57.9995 51.8086 58.9925 51.8086 60.2171C51.8086 61.4445 50.8156 62.4375 49.5881 62.4375C48.3607 62.4375 47.3677 61.4445 47.3677 60.2171Z" fill="#72C4FF"/>
<path opacity="0.7" d="M26.877 60.2171C26.877 58.9925 27.8699 57.9995 29.0974 57.9995C30.322 57.9995 31.3179 58.9925 31.3179 60.2171C31.3179 61.4445 30.3249 62.4375 29.0974 62.4375C27.8699 62.4375 26.877 61.4445 26.877 60.2171Z" fill="#72C4FF"/>
<path opacity="0.7" d="M88.3491 79.0201C88.3491 77.7955 89.3421 76.8025 90.5696 76.8025C91.7942 76.8025 92.79 77.7955 92.79 79.0201C92.79 80.2475 91.7971 81.2405 90.5696 81.2405C89.3421 81.2405 88.3491 80.2475 88.3491 79.0201Z" fill="#72C4FF"/>
<path opacity="0.7" d="M67.8589 79.0201C67.8589 77.7955 68.8519 76.8025 70.0793 76.8025C71.3039 76.8025 72.2998 77.7955 72.2998 79.0201C72.2998 80.2475 71.3068 81.2405 70.0793 81.2405C68.8519 81.2405 67.8589 80.2475 67.8589 79.0201Z" fill="#72C4FF"/>
<path opacity="0.7" d="M47.3677 79.0201C47.3677 77.7955 48.3607 76.8025 49.5881 76.8025C50.8127 76.8025 51.8086 77.7955 51.8086 79.0201C51.8086 80.2475 50.8156 81.2405 49.5881 81.2405C48.3607 81.2405 47.3677 80.2475 47.3677 79.0201Z" fill="#72C4FF"/>
<path opacity="0.7" d="M26.877 79.0201C26.877 77.7955 27.8699 76.8025 29.0974 76.8025C30.322 76.8025 31.3179 77.7955 31.3179 79.0201C31.3179 80.2475 30.3249 81.2405 29.0974 81.2405C27.8699 81.2405 26.877 80.2475 26.877 79.0201Z" fill="#72C4FF"/>
<path opacity="0.7" d="M129.331 60.2171C129.331 58.9925 130.324 57.9995 131.551 57.9995C132.776 57.9995 133.771 58.9925 133.771 60.2171C133.771 61.4445 132.779 62.4375 131.551 62.4375C130.324 62.4375 129.331 61.4445 129.331 60.2171Z" fill="#72C4FF"/>
<path opacity="0.7" d="M108.84 60.2171C108.84 58.9925 109.833 57.9995 111.061 57.9995C112.288 57.9995 113.281 58.9925 113.281 60.2171C113.281 61.4445 112.288 62.4375 111.061 62.4375C109.833 62.4375 108.84 61.4445 108.84 60.2171Z" fill="#72C4FF"/>
<path opacity="0.7" d="M129.331 79.0201C129.331 77.7955 130.324 76.8025 131.551 76.8025C132.776 76.8025 133.771 77.7955 133.771 79.0201C133.771 80.2475 132.779 81.2405 131.551 81.2405C130.324 81.2405 129.331 80.2475 129.331 79.0201Z" fill="#72C4FF"/>
<path opacity="0.7" d="M108.84 79.0201C108.84 77.7955 109.833 76.8025 111.061 76.8025C112.288 76.8025 113.281 77.7955 113.281 79.0201C113.281 80.2475 112.288 81.2405 111.061 81.2405C109.833 81.2405 108.84 80.2475 108.84 79.0201Z" fill="#72C4FF"/>
<path opacity="0.7" d="M129.331 135.411C129.331 134.187 130.324 133.191 131.551 133.191C132.779 133.191 133.771 134.184 133.771 135.411C133.771 136.639 132.779 137.632 131.551 137.632C130.324 137.632 129.331 136.636 129.331 135.411Z" fill="#72C4FF"/>
<path opacity="0.7" d="M108.84 135.411C108.84 134.187 109.833 133.191 111.061 133.191C112.288 133.191 113.281 134.184 113.281 135.411C113.281 136.639 112.288 137.632 111.061 137.632C109.833 137.632 108.84 136.636 108.84 135.411Z" fill="#72C4FF"/>
<path opacity="0.7" d="M129.331 154.212C129.331 152.987 130.324 151.991 131.551 151.991C132.779 151.991 133.771 152.984 133.771 154.212C133.771 155.436 132.779 156.432 131.551 156.432C130.324 156.432 129.331 155.439 129.331 154.212Z" fill="#72C4FF"/>
<path opacity="0.7" d="M108.84 154.212C108.84 152.987 109.833 151.991 111.061 151.991C112.288 151.991 113.281 152.984 113.281 154.212C113.281 155.436 112.288 156.432 111.061 156.432C109.833 156.432 108.84 155.439 108.84 154.212Z" fill="#72C4FF"/>
</g>
</svg>
