<svg width="215" height="247" viewBox="0 0 215 247" fill="none" xmlns="http://www.w3.org/2000/svg">
<g opacity="0.3">
<path d="M176.824 76.3519C155.774 76.3519 138.646 59.2264 138.646 38.1749C138.649 17.1255 155.774 0 176.824 0C197.875 0 215.001 17.1255 215.001 38.177C215.001 59.2264 197.875 76.3519 176.824 76.3519ZM176.824 2.1062C156.935 2.1062 140.753 18.2882 140.753 38.177C140.753 58.0659 156.935 74.2478 176.824 74.2478C196.712 74.2478 212.894 58.0659 212.894 38.177C212.894 18.2882 196.712 2.1062 176.824 2.1062Z" fill="#72C4FF"/>
<path d="M176.087 37.421L1.63818 211.894L3.12769 213.384L177.576 38.9103L176.087 37.421Z" fill="#72C4FF"/>
<path d="M110.762 151.093C102.662 151.093 96.0693 144.502 96.0693 136.4C96.0693 128.299 102.66 121.707 110.762 121.707C118.863 121.707 125.455 128.297 125.455 136.4C125.455 144.502 118.865 151.093 110.762 151.093ZM110.762 123.813C103.822 123.813 98.1755 129.46 98.1755 136.4C98.1755 143.34 103.822 148.987 110.762 148.987C117.702 148.987 123.349 143.34 123.349 136.4C123.349 129.46 117.702 123.813 110.762 123.813Z" fill="#72C4FF"/>
<path d="M110.029 135.654L0 245.699L1.48951 247.188L111.519 137.144L110.029 135.654Z" fill="#72C4FF"/>
</g>
</svg>
