<svg width="161" height="95" viewBox="0 0 161 95" fill="none" xmlns="http://www.w3.org/2000/svg">
<g opacity="0.2">
<path opacity="0.7" d="M67.77 57.1452C67.77 55.4078 69.1729 53.999 70.9071 53.999C72.6413 53.999 74.0442 55.4078 74.0442 57.1452C74.0442 58.8867 72.6413 60.2955 70.9071 60.2955C69.1729 60.2955 67.77 58.8867 67.77 57.1452Z" fill="#72C4FF"/>
<path opacity="0.7" d="M38.8208 57.1452C38.8208 55.4078 40.2237 53.999 41.9579 53.999C43.688 53.999 45.0949 55.4078 45.0949 57.1452C45.0949 58.8867 43.6921 60.2955 41.9579 60.2955C40.2237 60.2955 38.8208 58.8867 38.8208 57.1452Z" fill="#72C4FF"/>
<path opacity="0.7" d="M9.87158 57.1452C9.87158 55.4078 11.2745 53.999 13.0087 53.999C14.7428 53.999 16.1457 55.4078 16.1457 57.1452C16.1457 58.8867 14.7428 60.2955 13.0087 60.2955C11.2745 60.2955 9.87158 58.8867 9.87158 57.1452Z" fill="#72C4FF"/>
<path opacity="0.7" d="M67.77 83.8217C67.77 82.0843 69.1729 80.6755 70.9071 80.6755C72.6413 80.6755 74.0442 82.0843 74.0442 83.8217C74.0442 85.5631 72.6413 86.9719 70.9071 86.9719C69.1729 86.9719 67.77 85.5631 67.77 83.8217Z" fill="#72C4FF"/>
<path opacity="0.7" d="M38.8208 83.8217C38.8208 82.0843 40.2237 80.6755 41.9579 80.6755C43.688 80.6755 45.0949 82.0843 45.0949 83.8217C45.0949 85.5631 43.6921 86.9719 41.9579 86.9719C40.2237 86.9719 38.8208 85.5631 38.8208 83.8217Z" fill="#72C4FF"/>
<path opacity="0.7" d="M9.87158 83.8217C9.87158 82.0843 11.2745 80.6755 13.0087 80.6755C14.7428 80.6755 16.1457 82.0843 16.1457 83.8217C16.1457 85.5631 14.7428 86.9719 13.0087 86.9719C11.2745 86.9719 9.87158 85.5631 9.87158 83.8217Z" fill="#72C4FF"/>
<path opacity="0.7" d="M67.77 3.81679C67.77 2.07943 69.1729 0.670654 70.9071 0.670654C72.6413 0.670654 74.0442 2.07943 74.0442 3.81679C74.0442 5.55826 72.6413 6.96704 70.9071 6.96704C69.1729 6.96704 67.77 5.55826 67.77 3.81679Z" fill="#72C4FF"/>
<path opacity="0.7" d="M38.8208 3.81679C38.8208 2.07943 40.2237 0.670654 41.9579 0.670654C43.688 0.670654 45.0949 2.07943 45.0949 3.81679C45.0949 5.55826 43.6921 6.96704 41.9579 6.96704C40.2237 6.96704 38.8208 5.55826 38.8208 3.81679Z" fill="#72C4FF"/>
<path opacity="0.7" d="M9.87158 3.81679C9.87158 2.07943 11.2745 0.670654 13.0087 0.670654C14.7428 0.670654 16.1457 2.07943 16.1457 3.81679C16.1457 5.55826 14.7428 6.96704 13.0087 6.96704C11.2745 6.96704 9.87158 5.55826 9.87158 3.81679Z" fill="#72C4FF"/>
<path opacity="0.7" d="M67.77 30.4933C67.77 28.7559 69.1729 27.3472 70.9071 27.3472C72.6413 27.3472 74.0442 28.7559 74.0442 30.4933C74.0442 32.2348 72.6413 33.6436 70.9071 33.6436C69.1729 33.6436 67.77 32.2348 67.77 30.4933Z" fill="#72C4FF"/>
<path opacity="0.7" d="M38.8208 30.4933C38.8208 28.7559 40.2237 27.3472 41.9579 27.3472C43.688 27.3472 45.0949 28.7559 45.0949 30.4933C45.0949 32.2348 43.6921 33.6436 41.9579 33.6436C40.2237 33.6436 38.8208 32.2348 38.8208 30.4933Z" fill="#72C4FF"/>
<path opacity="0.7" d="M9.87158 30.4933C9.87158 28.7559 11.2745 27.3472 13.0087 27.3472C14.7428 27.3472 16.1457 28.7559 16.1457 30.4933C16.1457 32.2348 14.7428 33.6436 13.0087 33.6436C11.2745 33.6436 9.87158 32.2348 9.87158 30.4933Z" fill="#72C4FF"/>
<path opacity="0.7" d="M154.614 57.1452C154.614 55.4078 156.017 53.999 157.751 53.999C159.481 53.999 160.888 55.4078 160.888 57.1452C160.888 58.8867 159.486 60.2955 157.751 60.2955C156.021 60.2955 154.614 58.8867 154.614 57.1452Z" fill="#72C4FF"/>
<path opacity="0.7" d="M125.669 57.1452C125.669 55.4078 127.072 53.999 128.807 53.999C130.541 53.999 131.944 55.4078 131.944 57.1452C131.944 58.8867 130.541 60.2955 128.807 60.2955C127.072 60.2955 125.669 58.8867 125.669 57.1452Z" fill="#72C4FF"/>
<path opacity="0.7" d="M96.7197 57.1452C96.7197 55.4078 98.1226 53.999 99.8568 53.999C101.591 53.999 102.994 55.4078 102.994 57.1452C102.994 58.8867 101.591 60.2955 99.8568 60.2955C98.1226 60.2955 96.7197 58.8867 96.7197 57.1452Z" fill="#72C4FF"/>
<path opacity="0.7" d="M154.614 83.8217C154.614 82.0843 156.017 80.6755 157.751 80.6755C159.481 80.6755 160.888 82.0843 160.888 83.8217C160.888 85.5631 159.486 86.9719 157.751 86.9719C156.021 86.9719 154.614 85.5631 154.614 83.8217Z" fill="#72C4FF"/>
<path opacity="0.7" d="M125.669 83.8217C125.669 82.0843 127.072 80.6755 128.807 80.6755C130.541 80.6755 131.944 82.0843 131.944 83.8217C131.944 85.5631 130.541 86.9719 128.807 86.9719C127.072 86.9719 125.669 85.5631 125.669 83.8217Z" fill="#72C4FF"/>
<path opacity="0.7" d="M96.7197 83.8217C96.7197 82.0843 98.1226 80.6755 99.8568 80.6755C101.591 80.6755 102.994 82.0843 102.994 83.8217C102.994 85.5631 101.591 86.9719 99.8568 86.9719C98.1226 86.9719 96.7197 85.5631 96.7197 83.8217Z" fill="#72C4FF"/>
<path opacity="0.7" d="M154.614 3.81679C154.614 2.07943 156.017 0.670654 157.751 0.670654C159.481 0.670654 160.888 2.07943 160.888 3.81679C160.888 5.55826 159.486 6.96704 157.751 6.96704C156.021 6.96704 154.614 5.55826 154.614 3.81679Z" fill="#72C4FF"/>
<path opacity="0.7" d="M125.669 3.81679C125.669 2.07943 127.072 0.670654 128.807 0.670654C130.541 0.670654 131.944 2.07943 131.944 3.81679C131.944 5.55826 130.541 6.96704 128.807 6.96704C127.072 6.96704 125.669 5.55826 125.669 3.81679Z" fill="#72C4FF"/>
<path opacity="0.7" d="M96.7197 3.81679C96.7197 2.07943 98.1226 0.670654 99.8568 0.670654C101.591 0.670654 102.994 2.07943 102.994 3.81679C102.994 5.55826 101.591 6.96704 99.8568 6.96704C98.1226 6.96704 96.7197 5.55826 96.7197 3.81679Z" fill="#72C4FF"/>
<path opacity="0.7" d="M154.614 30.4933C154.614 28.7559 156.017 27.3472 157.751 27.3472C159.481 27.3472 160.888 28.7559 160.888 30.4933C160.888 32.2348 159.486 33.6436 157.751 33.6436C156.021 33.6436 154.614 32.2348 154.614 30.4933Z" fill="#72C4FF"/>
<path opacity="0.7" d="M125.669 30.4933C125.669 28.7559 127.072 27.3472 128.807 27.3472C130.541 27.3472 131.944 28.7559 131.944 30.4933C131.944 32.2348 130.541 33.6436 128.807 33.6436C127.072 33.6436 125.669 32.2348 125.669 30.4933Z" fill="#72C4FF"/>
<path opacity="0.7" d="M96.7197 30.4933C96.7197 28.7559 98.1226 27.3472 99.8568 27.3472C101.591 27.3472 102.994 28.7559 102.994 30.4933C102.994 32.2348 101.591 33.6436 99.8568 33.6436C98.1226 33.6436 96.7197 32.2348 96.7197 30.4933Z" fill="#72C4FF"/>
</g>
</svg>
