<svg width="321" height="287" viewBox="0 0 321 287" fill="none" xmlns="http://www.w3.org/2000/svg">
<g opacity="0.2">
<path d="M34.7812 22.5444L-46.4585 103.784C-44.5723 100.224 -42.5773 96.7274 -40.4789 93.3025L24.3049 28.5188C27.7271 26.423 31.221 24.428 34.7812 22.5444Z" fill="#72C4FF"/>
<path d="M63.0589 10.3223L-58.6772 132.058C-57.8681 129.681 -57.0139 127.328 -56.1145 124.994L55.9916 12.885C58.3261 11.9856 60.6819 11.1314 63.0589 10.3223Z" fill="#72C4FF"/>
<path d="M85.2148 4.21826L-64.7827 154.216C-64.3689 152.261 -63.9232 150.316 -63.4483 148.382L79.3784 5.55267C81.3123 5.0778 83.2596 4.63211 85.2148 4.21826Z" fill="#72C4FF"/>
<path d="M104.353 1.13525L-67.8647 173.353C-67.6764 171.634 -67.4642 169.921 -67.2281 168.215L99.2147 1.77195C100.921 1.53584 102.634 1.32361 104.353 1.13525Z" fill="#72C4FF"/>
<path d="M121.544 0L-69 190.542C-68.9655 188.984 -68.9125 187.43 -68.8408 185.883L116.881 0.159174C118.43 0.0875456 119.984 0.0344877 121.544 0Z" fill="#72C4FF"/>
<path d="M137.324 0.273186L-68.7268 206.324C-68.8091 204.894 -68.8754 203.459 -68.9258 202.021L133.021 0.0742188C134.459 0.124624 135.894 0.190946 137.324 0.273186Z" fill="#72C4FF"/>
<path d="M-67.8242 216.973L18.5859 130.565C16.6679 133.751 14.8905 137.03 13.2589 140.394L-67.3334 220.986C-67.5085 219.652 -67.673 218.315 -67.8242 216.973Z" fill="#72C4FF"/>
<path d="M151.987 1.66608L71.3941 82.2585C68.0303 83.89 64.7486 85.6675 61.5625 87.5855L147.973 1.17529C149.315 1.32651 150.652 1.49099 151.987 1.66608Z" fill="#72C4FF"/>
<path d="M-65.7422 230.948L5.92848 159.275C5.32628 161.304 4.77183 163.358 4.27308 165.432L-64.9994 234.705C-65.262 233.458 -65.5061 232.206 -65.7422 230.948Z" fill="#72C4FF"/>
<path d="M165.707 3.99797L96.4318 73.2731C94.3572 73.7719 92.3039 74.3263 90.2744 74.9285L161.945 3.25781C163.203 3.49127 164.457 3.73799 165.707 3.99797Z" fill="#72C4FF"/>
<path d="M-62.8188 244.077L1.70757 179.551C1.50064 181.214 1.3282 182.885 1.1929 184.567L-61.8638 247.624C-62.1928 246.446 -62.5111 245.263 -62.8188 244.077Z" fill="#72C4FF"/>
<path d="M178.624 7.13668L115.567 70.1934C113.885 70.3287 112.214 70.5012 110.551 70.7081L175.077 6.18164C176.266 6.48938 177.446 6.80772 178.624 7.13668Z" fill="#72C4FF"/>
<path d="M0.774582 196.54C0.790501 198.002 0.832943 199.458 0.904572 200.909L-58.011 259.825C-58.4036 258.711 -58.7856 257.594 -59.1597 256.472L0.774582 196.54Z" fill="#72C4FF"/>
<path d="M190.825 10.9881L131.91 69.9036C130.458 69.832 129.002 69.7896 127.538 69.7736L187.472 9.83936C188.594 10.2108 189.711 10.5954 190.825 10.9881Z" fill="#72C4FF"/>
<path d="M1.84775 211.519C2.01754 212.832 2.2112 214.142 2.42608 215.442L-53.5182 271.387C-53.9666 270.331 -54.4069 269.272 -54.8394 268.206L1.84775 211.519Z" fill="#72C4FF"/>
<path d="M202.386 15.4828L146.442 71.4271C145.142 71.2122 143.831 71.0185 142.518 70.8488L199.203 14.1616C200.269 14.5914 201.33 15.0344 202.386 15.4828Z" fill="#72C4FF"/>
<path d="M4.3922 225.027C4.68667 226.223 4.99706 227.414 5.32867 228.595L-48.4323 282.353C-48.9363 281.353 -49.4298 280.345 -49.9126 279.334L4.3922 225.027Z" fill="#72C4FF"/>
<path d="M213.353 20.5679L159.595 74.3289C158.414 73.9973 157.223 73.6869 156.026 73.3924L210.334 19.085C211.345 19.5704 212.353 20.0639 213.353 20.5679Z" fill="#72C4FF"/>
<path d="M8.11742 237.358C8.51005 238.456 8.92125 239.549 9.34572 240.632L-42.797 292.774C-43.3488 291.825 -43.8953 290.867 -44.4312 289.907L8.11742 237.358Z" fill="#72C4FF"/>
<path d="M223.774 26.203L171.632 78.3458C170.549 77.9213 169.456 77.5101 168.358 77.1175L220.906 24.5688C221.867 25.1047 222.825 25.6486 223.774 26.203Z" fill="#72C4FF"/>
<path d="M12.8372 248.693C13.3174 249.707 13.8135 250.712 14.3228 251.71L-36.6446 302.675C-37.2442 301.773 -37.8358 300.865 -38.4194 299.95L12.8372 248.693Z" fill="#72C4FF"/>
<path d="M233.677 32.3546L182.71 83.3221C181.712 82.8127 180.707 82.3166 179.691 81.8364L230.95 30.5771C231.865 31.1608 232.775 31.755 233.677 32.3546Z" fill="#72C4FF"/>
<path d="M18.4337 259.151C18.9934 260.088 19.5638 261.016 20.1474 261.937L-29.9976 312.082C-30.6423 311.225 -31.279 310.363 -31.9077 309.493L18.4337 259.151Z" fill="#72C4FF"/>
<path d="M243.081 39.0031L192.936 89.1482C192.016 88.5645 191.087 87.9915 190.148 87.4344L240.492 37.0903C241.362 37.7191 242.224 38.3558 243.081 39.0031Z" fill="#72C4FF"/>
<path d="M24.8299 268.807C25.464 269.672 26.106 270.532 26.7612 271.378L-22.8692 321.008C-23.5563 320.194 -24.2407 319.377 -24.9146 318.552L24.8299 268.807Z" fill="#72C4FF"/>
<path d="M252.008 46.131L202.378 95.7615C201.529 95.1062 200.672 94.4615 199.804 93.8302L249.551 44.083C250.376 44.7568 251.193 45.4413 252.008 46.131Z" fill="#72C4FF"/>
<path d="M31.9825 277.708C32.6829 278.507 33.3938 279.294 34.1181 280.074L-15.2709 329.463C-16.0031 328.694 -16.7274 327.919 -17.4463 327.139L31.9825 277.708Z" fill="#72C4FF"/>
<path d="M260.463 53.7293L211.074 103.118C210.294 102.394 209.507 101.683 208.708 100.983L258.139 51.5513C258.919 52.2702 259.694 52.9944 260.463 53.7293Z" fill="#72C4FF"/>
<path d="M39.8625 285.882C40.6345 286.614 41.4145 287.336 42.205 288.044L-7.20516 337.454C-7.97981 336.73 -8.74915 335.998 -9.51318 335.26L39.8625 285.882Z" fill="#72C4FF"/>
<path d="M268.457 61.7914L219.044 111.204C218.336 110.414 217.615 109.634 216.882 108.862L266.261 59.4834C266.998 60.2474 267.73 61.0168 268.457 61.7914Z" fill="#72C4FF"/>
<path d="M275.979 70.323L226.288 120.014C225.646 119.158 224.993 118.309 224.33 117.468L273.915 67.8823C274.61 68.6888 275.3 69.5032 275.979 70.323Z" fill="#72C4FF"/>
<path d="M283.034 79.3216L232.78 129.575C232.212 128.647 231.631 127.726 231.037 126.816L281.103 76.751C281.755 77.6026 282.397 78.4594 283.034 79.3216Z" fill="#72C4FF"/>
<path d="M289.606 88.8033L238.479 139.93C237.991 138.927 237.484 137.93 236.967 136.943L287.812 86.0947C288.417 86.9914 289.017 87.8934 289.606 88.8033Z" fill="#72C4FF"/>
<path d="M295.68 98.7833L243.312 151.152C242.909 150.064 242.487 148.981 242.052 147.91L294.03 95.9341C294.585 96.8785 295.136 97.8282 295.68 98.7833Z" fill="#72C4FF"/>
<path d="M301.23 109.289L247.169 163.35C246.864 162.167 246.538 160.989 246.196 159.821L299.726 106.289C300.238 107.283 300.737 108.284 301.23 109.289Z" fill="#72C4FF"/>
<path d="M306.225 120.346L249.872 176.699C249.686 175.399 249.477 174.107 249.246 172.823L304.88 117.189C305.339 118.235 305.785 119.288 306.225 120.346Z" fill="#72C4FF"/>
<path d="M310.624 132.003L251.154 191.473C251.114 190.03 251.051 188.595 250.96 187.165L309.454 128.671C309.852 129.777 310.245 130.889 310.624 132.003Z" fill="#72C4FF"/>
<path d="M314.371 144.312L250.513 208.168C250.688 206.536 250.826 204.897 250.932 203.247L313.389 140.792C313.726 141.959 314.055 143.134 314.371 144.312Z" fill="#72C4FF"/>
<path d="M317.386 157.349L246.827 227.908C247.363 225.937 247.851 223.947 248.292 221.939L316.617 153.613C316.888 154.855 317.145 156.099 317.386 157.349Z" fill="#72C4FF"/>
<path d="M319.58 171.21L236.051 254.737C237.627 251.843 239.091 248.879 240.434 245.852L319.055 167.231C319.243 168.552 319.419 169.879 319.58 171.21Z" fill="#72C4FF"/>
<path d="M320.814 186.029L117.029 389.814C115.605 389.751 114.183 389.671 112.766 389.576L320.576 181.766C320.671 183.183 320.751 184.605 320.814 186.029Z" fill="#72C4FF"/>
<path d="M321 197.397C320.981 198.938 320.947 200.472 320.891 202.005L133.005 389.891C131.474 389.947 129.938 389.981 128.397 390L321 197.397Z" fill="#72C4FF"/>
<path d="M320.06 214.392C319.893 216.087 319.705 217.777 319.492 219.459L150.458 388.493C148.776 388.706 147.086 388.894 145.391 389.061L320.06 214.392Z" fill="#72C4FF"/>
<path d="M317.265 233.24C316.883 235.161 316.475 237.068 316.037 238.97L169.971 385.036C168.071 385.474 166.161 385.883 164.241 386.265L317.265 233.24Z" fill="#72C4FF"/>
<path d="M311.627 254.933C310.887 257.235 310.101 259.519 309.274 261.785L192.785 378.274C190.519 379.102 188.235 379.887 185.933 380.627L311.627 254.933Z" fill="#72C4FF"/>
<path d="M300.538 282.075C298.893 285.364 297.158 288.598 295.338 291.776L222.776 364.338C219.6 366.158 216.367 367.891 213.08 369.533L300.538 282.075Z" fill="#72C4FF"/>
</g>
</svg>
