<svg width="254" height="239" viewBox="0 0 254 239" fill="none" xmlns="http://www.w3.org/2000/svg">
<g opacity="0.2">
<path d="M84.8881 18.4404L18.438 84.8905C19.9808 81.9785 21.6126 79.1185 23.329 76.3171L76.319 23.3271C79.1182 21.6129 81.976 19.9811 84.8881 18.4404Z" fill="#72C4FF"/>
<path d="M108.018 8.44287L8.44336 108.017C9.10519 106.073 9.80391 104.148 10.5395 102.239L102.237 10.539C104.146 9.80342 106.073 9.1047 108.018 8.44287Z" fill="#72C4FF"/>
<path d="M126.14 3.4502L3.44922 126.141C3.78773 124.542 4.15228 122.951 4.5407 121.369L121.366 4.54168C122.948 4.15326 124.541 3.78871 126.14 3.4502Z" fill="#72C4FF"/>
<path d="M141.794 0.928711L0.928223 141.795C1.08229 140.389 1.25588 138.987 1.44901 137.592L137.591 1.4495C138.986 1.25637 140.388 1.08278 141.794 0.928711Z" fill="#72C4FF"/>
<path d="M155.856 0L0 155.854C0.0282092 154.58 0.071608 153.308 0.130196 152.043L152.041 0.130196C153.308 0.071608 154.58 0.0282092 155.856 0Z" fill="#72C4FF"/>
<path d="M168.763 0.223292L0.223292 168.763C0.156024 167.593 0.101776 166.419 0.0605469 165.243L165.243 0.0605469C166.419 0.101776 167.593 0.156024 168.763 0.223292Z" fill="#72C4FF"/>
<path d="M0.961426 177.473L71.6407 106.796C70.0718 109.402 68.618 112.084 67.2835 114.836L1.36286 180.756C1.21965 179.665 1.08511 178.571 0.961426 177.473Z" fill="#72C4FF"/>
<path d="M180.756 1.36286L114.835 67.2835C112.084 68.618 109.4 70.0719 106.793 71.6407L177.473 0.961426C178.571 1.08511 179.664 1.21965 180.756 1.36286Z" fill="#72C4FF"/>
<path d="M2.66406 188.904L61.2871 130.279C60.7946 131.939 60.3411 133.618 59.9331 135.315L3.27165 191.977C3.05682 190.957 2.85719 189.933 2.66406 188.904Z" fill="#72C4FF"/>
<path d="M191.978 3.26996L135.314 59.9336C133.617 60.3416 131.938 60.7951 130.278 61.2877L188.901 2.66455C189.929 2.85551 190.956 3.05731 191.978 3.26996Z" fill="#72C4FF"/>
<path d="M5.05615 199.643L57.8356 146.863C57.6663 148.224 57.5253 149.591 57.4146 150.967L5.83733 202.544C5.56826 201.581 5.30787 200.613 5.05615 199.643Z" fill="#72C4FF"/>
<path d="M202.545 5.83684L150.968 57.4142C149.592 57.5248 148.225 57.6659 146.864 57.8351L199.644 5.05566C200.616 5.30738 201.581 5.56777 202.545 5.83684Z" fill="#72C4FF"/>
<path d="M57.0716 160.76C57.0846 161.955 57.1194 163.147 57.1779 164.334L8.98792 212.524C8.66677 211.612 8.3543 210.699 8.04834 209.781L57.0716 160.76Z" fill="#72C4FF"/>
<path d="M212.524 8.98744L164.334 57.1775C163.147 57.1189 161.956 57.0842 160.758 57.0712L209.781 8.04785C210.699 8.35164 211.613 8.66629 212.524 8.98744Z" fill="#72C4FF"/>
<path d="M57.9503 173.011C58.0892 174.085 58.2476 175.157 58.4233 176.221L12.6636 221.98C12.2969 221.117 11.9367 220.251 11.583 219.379L57.9503 173.011Z" fill="#72C4FF"/>
<path d="M221.98 12.6636L176.22 58.4233C175.157 58.2476 174.085 58.0892 173.011 57.9503L219.376 11.583C220.248 11.9345 221.116 12.2969 221.98 12.6636Z" fill="#72C4FF"/>
<path d="M60.0305 184.061C60.2713 185.039 60.5252 186.013 60.7965 186.979L16.8226 230.951C16.4104 230.133 16.0067 229.308 15.6118 228.481L60.0305 184.061Z" fill="#72C4FF"/>
<path d="M230.95 16.8233L186.978 60.7972C186.013 60.526 185.038 60.2721 184.06 60.0312L228.48 15.6104C229.307 16.0075 230.132 16.4111 230.95 16.8233Z" fill="#72C4FF"/>
<path d="M63.0779 194.147C63.399 195.045 63.7354 195.939 64.0825 196.825L21.4324 239.475C20.981 238.698 20.534 237.915 20.0957 237.129L63.0779 194.147Z" fill="#72C4FF"/>
<path d="M239.475 21.4324L196.825 64.0826C195.939 63.7354 195.045 63.399 194.147 63.0779L237.129 20.0957C237.915 20.534 238.698 20.9789 239.475 21.4324Z" fill="#72C4FF"/>
<path d="M66.9386 203.418C67.3313 204.247 67.7371 205.07 68.1537 205.886L26.4649 247.572C25.9745 246.835 25.4906 246.093 25.0132 245.344L66.9386 203.418Z" fill="#72C4FF"/>
<path d="M247.575 26.4641L205.886 68.153C205.07 67.7364 204.248 67.3306 203.417 66.9379L245.345 25.0103C246.093 25.4876 246.837 25.9737 247.575 26.4641Z" fill="#72C4FF"/>
<path d="M71.5161 211.973C71.974 212.739 72.4405 213.498 72.9179 214.251L31.9017 255.267C31.3744 254.566 30.8536 253.861 30.3394 253.149L71.5161 211.973Z" fill="#72C4FF"/>
<path d="M255.267 31.9024L214.251 72.9186C213.498 72.4413 212.738 71.9725 211.97 71.5169L253.149 30.3379C253.861 30.8522 254.566 31.373 255.267 31.9024Z" fill="#72C4FF"/>
<path d="M76.7481 219.871C77.2667 220.578 77.7918 221.282 78.3278 221.974L37.7326 262.569C37.1706 261.903 36.6107 261.234 36.0596 260.56L76.7481 219.871Z" fill="#72C4FF"/>
<path d="M262.568 37.7333L221.973 78.3286C221.279 77.7926 220.578 77.2653 219.868 76.7488L260.559 36.0581C261.234 36.6093 261.902 37.1691 262.568 37.7333Z" fill="#72C4FF"/>
<path d="M82.5978 227.151C83.1707 227.805 83.7522 228.449 84.3446 229.087L43.9468 269.485C43.3479 268.855 42.7555 268.222 42.1675 267.584L82.5978 227.151Z" fill="#72C4FF"/>
<path d="M269.484 43.9475L229.086 84.3453C228.448 83.7529 227.804 83.1714 227.15 82.5985L267.583 42.166C268.221 42.7541 268.854 43.3465 269.484 43.9475Z" fill="#72C4FF"/>
<path d="M89.0432 233.837C89.6746 234.436 90.3126 235.027 90.9592 235.606L50.5441 276.021C49.9105 275.429 49.2812 274.83 48.6562 274.226L89.0432 233.837Z" fill="#72C4FF"/>
<path d="M276.023 50.5421L235.605 90.9595C235.026 90.3128 234.436 89.6749 233.837 89.0434L274.226 48.6543C274.829 49.2792 275.428 49.9085 276.023 50.5421Z" fill="#72C4FF"/>
<path d="M282.176 57.5208L241.531 98.1659C241.006 97.465 240.472 96.7707 239.93 96.0828L280.488 55.5244C281.057 56.1841 281.621 56.8502 282.176 57.5208Z" fill="#72C4FF"/>
<path d="M287.946 64.881L246.841 105.986C246.376 105.227 245.901 104.474 245.415 103.729L286.366 62.7783C286.9 63.4749 287.425 64.1758 287.946 64.881Z" fill="#72C4FF"/>
<path d="M293.322 72.6369L251.502 114.456C251.103 113.636 250.689 112.82 250.266 112.013L291.855 70.4214C292.349 71.1548 292.84 71.8926 293.322 72.6369Z" fill="#72C4FF"/>
<path d="M317.839 140.042L249.517 208.362C250.806 205.995 252.003 203.571 253.101 201.095L317.41 136.787C317.564 137.867 317.707 138.952 317.839 140.042Z" fill="#72C4FF"/>
<path d="M318.848 152.163L152.162 318.849C150.997 318.797 149.834 318.732 148.675 318.654L318.653 148.676C318.731 149.835 318.796 150.998 318.848 152.163Z" fill="#72C4FF"/>
<path d="M319.001 161.46C318.986 162.721 318.957 163.975 318.912 165.23L165.23 318.911C163.978 318.957 162.722 318.985 161.461 319L319.001 161.46Z" fill="#72C4FF"/>
<path d="M318.232 175.361C318.096 176.748 317.942 178.13 317.768 179.506L179.506 317.768C178.13 317.942 176.748 318.096 175.361 318.232L318.232 175.361Z" fill="#72C4FF"/>
<path d="M315.945 190.779C315.632 192.35 315.298 193.91 314.94 195.466L195.465 314.941C193.912 315.299 192.349 315.633 190.778 315.945L315.945 190.779Z" fill="#72C4FF"/>
<path d="M311.334 208.522C310.729 210.406 310.086 212.274 309.409 214.127L214.127 309.41C212.274 310.087 210.406 310.729 208.522 311.334L311.334 208.522Z" fill="#72C4FF"/>
<path d="M302.263 230.723C300.918 233.414 299.499 236.059 298.01 238.659L238.658 298.011C236.061 299.499 233.416 300.916 230.727 302.26L302.263 230.723Z" fill="#72C4FF"/>
</g>
</svg>
