<svg width="215" height="248" viewBox="0 0 215 248" fill="none" xmlns="http://www.w3.org/2000/svg">
<g opacity="0.3">
<path d="M38.177 76.3519C59.2264 76.3519 76.354 59.2264 76.354 38.1749C76.3519 17.1255 59.2264 0 38.177 0C17.1255 0 -3.11292e-05 17.1255 -3.11292e-05 38.177C-3.11292e-05 59.2264 17.1255 76.3519 38.177 76.3519ZM38.177 2.1062C58.0658 2.1062 74.2478 18.2882 74.2478 38.177C74.2478 58.0659 58.0658 74.2478 38.177 74.2478C18.2881 74.2478 2.10617 58.0659 2.10617 38.177C2.10617 18.2882 18.2881 2.1062 38.177 2.1062Z" fill="#72C4FF"/>
<path d="M38.9137 37.421L213.362 211.894L211.873 213.384L37.4242 38.9103L38.9137 37.421Z" fill="#72C4FF"/>
<path d="M104.238 151.093C112.339 151.093 118.931 144.502 118.931 136.4C118.931 128.299 112.341 121.707 104.238 121.707C96.1378 121.707 89.5454 128.297 89.5454 136.4C89.5454 144.502 96.1357 151.093 104.238 151.093ZM104.238 123.813C111.178 123.813 116.825 129.46 116.825 136.4C116.825 143.34 111.178 148.986 104.238 148.986C97.2983 148.986 91.6516 143.34 91.6516 136.4C91.6516 129.46 97.2983 123.813 104.238 123.813Z" fill="#72C4FF"/>
<path d="M104.971 135.654L215 245.699L213.511 247.188L103.482 137.144L104.971 135.654Z" fill="#72C4FF"/>
</g>
</svg>
