<svg width="331" height="331" viewBox="0 0 331 331" fill="none" xmlns="http://www.w3.org/2000/svg">
<g opacity="0.2">
<path d="M88.0807 19.1338L19.1313 88.0832C20.7322 85.0616 22.4254 82.0941 24.2064 79.1873L79.1893 24.2043C82.0938 22.4256 85.0591 20.7324 88.0807 19.1338Z" fill="#72C4FF"/>
<path d="M112.081 8.76074L8.76123 112.08C9.44795 110.063 10.173 108.066 10.9362 106.084L106.082 10.9357C108.064 10.1725 110.063 9.44747 112.081 8.76074Z" fill="#72C4FF"/>
<path d="M130.884 3.57983L3.5791 130.885C3.93034 129.226 4.30861 127.575 4.71163 125.934L125.931 4.71237C127.572 4.30934 129.225 3.93108 130.884 3.57983Z" fill="#72C4FF"/>
<path d="M147.128 0.963623L0.963379 147.128C1.12324 145.669 1.30336 144.214 1.50375 142.767L142.766 1.504C144.214 1.30361 145.669 1.12348 147.128 0.963623Z" fill="#72C4FF"/>
<path d="M161.718 0L0 161.716C0.0292702 160.394 0.0743013 159.075 0.135093 157.762L157.76 0.135093C159.075 0.0743013 160.394 0.0292702 161.718 0Z" fill="#72C4FF"/>
<path d="M175.11 0.231855L0.231855 175.11C0.162057 173.897 0.105768 172.679 0.0629883 171.458L171.458 0.0629883C172.678 0.105768 173.897 0.162057 175.11 0.231855Z" fill="#72C4FF"/>
<path d="M0.997559 184.148L74.3352 110.813C72.7073 113.517 71.1988 116.3 69.8141 119.155L1.4141 187.555C1.26549 186.422 1.1259 185.288 0.997559 184.148Z" fill="#72C4FF"/>
<path d="M187.554 1.4141L119.154 69.8141C116.299 71.1988 113.514 72.7074 110.81 74.3352L184.148 0.997559C185.287 1.1259 186.422 1.26549 187.554 1.4141Z" fill="#72C4FF"/>
<path d="M2.76416 196.009L63.5922 135.179C63.0811 136.901 62.6105 138.644 62.1872 140.405L3.3946 199.197C3.17169 198.139 2.96455 197.076 2.76416 196.009Z" fill="#72C4FF"/>
<path d="M199.198 3.39308L140.404 62.188C138.643 62.6112 136.9 63.0818 135.178 63.5929L196.006 2.76489C197.073 2.96303 198.138 3.17242 199.198 3.39308Z" fill="#72C4FF"/>
<path d="M5.24658 207.152L60.0111 152.387C59.8355 153.799 59.6892 155.217 59.5743 156.645L6.05714 210.162C5.77795 209.162 5.50776 208.158 5.24658 207.152Z" fill="#72C4FF"/>
<path d="M210.163 6.05665L156.646 59.5739C155.218 59.6887 153.8 59.8351 152.388 60.0107L207.153 5.24609C208.161 5.50727 209.163 5.77746 210.163 6.05665Z" fill="#72C4FF"/>
<path d="M59.2182 166.806C59.2317 168.047 59.2677 169.283 59.3285 170.515L9.326 220.517C8.99277 219.572 8.66854 218.624 8.35107 217.671L59.2182 166.806Z" fill="#72C4FF"/>
<path d="M220.517 9.32575L170.515 59.3283C169.283 59.2675 168.047 59.2315 166.804 59.218L217.671 8.35083C218.624 8.66605 219.572 8.99252 220.517 9.32575Z" fill="#72C4FF"/>
<path d="M60.1298 179.519C60.2739 180.633 60.4382 181.745 60.6206 182.849L13.1398 230.329C12.7593 229.433 12.3856 228.535 12.0186 227.63L60.1298 179.519Z" fill="#72C4FF"/>
<path d="M230.329 13.1401L182.848 60.6209C181.745 60.4385 180.633 60.2741 179.518 60.13L227.627 12.0188C228.532 12.3836 229.433 12.7596 230.329 13.1401Z" fill="#72C4FF"/>
<path d="M62.2885 190.984C62.5385 191.999 62.8019 193.01 63.0833 194.012L17.4556 239.638C17.0278 238.789 16.609 237.933 16.1992 237.075L62.2885 190.984Z" fill="#72C4FF"/>
<path d="M239.637 17.4561L194.011 63.0839C193.009 62.8025 191.998 62.539 190.983 62.2891L237.074 16.1975C237.932 16.6095 238.788 17.0283 239.637 17.4561Z" fill="#72C4FF"/>
<path d="M65.4504 201.449C65.7836 202.381 66.1326 203.309 66.4928 204.227L22.2385 248.482C21.7702 247.676 21.3064 246.863 20.8516 246.048L65.4504 201.449Z" fill="#72C4FF"/>
<path d="M248.482 22.2385L204.228 66.4929C203.309 66.1326 202.381 65.7836 201.449 65.4504L246.048 20.8516C246.863 21.3064 247.676 21.7679 248.482 22.2385Z" fill="#72C4FF"/>
<path d="M69.4564 211.07C69.8639 211.93 70.285 212.783 70.7173 213.63L27.4604 256.884C26.9515 256.119 26.4494 255.349 25.9541 254.572L69.4564 211.07Z" fill="#72C4FF"/>
<path d="M256.887 27.4597L213.63 70.7166C212.784 70.2843 211.93 69.8633 211.068 69.4557L254.572 25.9512C255.349 26.4465 256.121 26.9509 256.887 27.4597Z" fill="#72C4FF"/>
<path d="M74.206 219.946C74.681 220.741 75.1651 221.529 75.6605 222.31L33.1016 264.869C32.5545 264.142 32.0141 263.41 31.4805 262.671L74.206 219.946Z" fill="#72C4FF"/>
<path d="M264.868 33.1026L222.309 75.6615C221.528 75.1662 220.74 74.6798 219.943 74.207L262.671 31.4792C263.409 32.0129 264.141 32.5532 264.868 33.1026Z" fill="#72C4FF"/>
<path d="M79.6349 228.141C80.173 228.875 80.7179 229.604 81.274 230.323L39.152 272.445C38.5688 271.753 37.9879 271.06 37.416 270.36L79.6349 228.141Z" fill="#72C4FF"/>
<path d="M272.444 39.1523L230.322 81.2744C229.602 80.7182 228.874 80.1711 228.138 79.6352L270.359 37.4141C271.06 37.986 271.753 38.5669 272.444 39.1523Z" fill="#72C4FF"/>
<path d="M85.7049 235.695C86.2993 236.373 86.9027 237.042 87.5174 237.703L45.6002 279.621C44.9788 278.968 44.3641 278.31 43.7539 277.648L85.7049 235.695Z" fill="#72C4FF"/>
<path d="M279.62 45.6007L237.703 87.5179C237.041 86.9033 236.372 86.2999 235.694 85.7054L277.648 43.7522C278.31 44.3624 278.967 44.977 279.62 45.6007Z" fill="#72C4FF"/>
<path d="M92.3928 242.633C93.048 243.254 93.7099 243.866 94.3809 244.468L52.4457 286.403C51.7882 285.788 51.1353 285.167 50.4868 284.541L92.3928 242.633Z" fill="#72C4FF"/>
<path d="M286.405 52.4435L244.467 94.381C243.866 93.71 243.254 93.048 242.632 92.3928L284.54 50.4846C285.166 51.1331 285.788 51.786 286.405 52.4435Z" fill="#72C4FF"/>
<path d="M99.699 248.954C100.411 249.517 101.131 250.071 101.858 250.614L59.6844 292.788C58.9887 292.211 58.2997 291.628 57.6152 291.038L99.699 248.954Z" fill="#72C4FF"/>
<path d="M292.79 59.684L250.616 101.858C250.071 101.131 249.517 100.41 248.954 99.6964L291.038 57.6125C291.628 58.297 292.213 58.9882 292.79 59.684Z" fill="#72C4FF"/>
<path d="M107.633 254.644C108.405 255.151 109.186 255.644 109.974 256.123L67.3209 298.777C66.5892 298.236 65.8619 297.689 65.1392 297.138L107.633 254.644Z" fill="#72C4FF"/>
<path d="M298.776 67.3214L256.125 109.973C255.643 109.185 255.15 108.403 254.646 107.631L297.137 65.1396C297.691 65.8624 298.236 66.5897 298.776 67.3214Z" fill="#72C4FF"/>
<path d="M116.227 259.677C117.065 260.118 117.911 260.546 118.763 260.962L75.3684 304.354C74.5983 303.854 73.8328 303.345 73.0718 302.832L116.227 259.677Z" fill="#72C4FF"/>
<path d="M304.354 75.3687L260.962 118.761C260.547 117.91 260.117 117.063 259.678 116.225L302.832 73.0698C303.345 73.8309 303.854 74.5964 304.354 75.3687Z" fill="#72C4FF"/>
<path d="M125.535 263.993C126.444 264.364 127.361 264.72 128.284 265.065L83.8405 309.508C83.03 309.049 82.2239 308.583 81.4224 308.108L125.535 263.993Z" fill="#72C4FF"/>
<path d="M309.509 83.8388L265.063 128.285C264.721 127.361 264.363 126.443 263.994 125.533L308.108 81.4207C308.579 82.2222 309.047 83.0283 309.509 83.8388Z" fill="#72C4FF"/>
<path d="M135.645 267.509C136.635 267.802 137.635 268.077 138.639 268.336L92.7547 314.22C91.9014 313.801 91.0525 313.376 90.2104 312.943L135.645 267.509Z" fill="#72C4FF"/>
<path d="M314.22 92.755L268.338 138.637C268.079 137.633 267.802 136.633 267.511 135.643L312.943 90.2085C313.378 91.0528 313.801 91.9017 314.22 92.755Z" fill="#72C4FF"/>
<path d="M146.68 270.101C147.77 270.295 148.866 270.473 149.97 270.63L102.14 318.46C101.241 318.086 100.35 317.708 99.4604 317.321L146.68 270.101Z" fill="#72C4FF"/>
<path d="M318.46 102.139L270.633 149.967C270.475 148.864 270.297 147.767 270.102 146.677L317.319 99.46C317.708 100.347 318.087 101.241 318.46 102.139Z" fill="#72C4FF"/>
<path d="M158.851 271.553C160.064 271.63 161.283 271.684 162.507 271.718L112.032 322.193C111.086 321.871 110.143 321.538 109.204 321.2L158.851 271.553Z" fill="#72C4FF"/>
<path d="M322.192 112.033L271.719 162.506C271.685 161.281 271.631 160.063 271.555 158.85L321.199 109.205C321.537 110.144 321.87 111.087 322.192 112.033Z" fill="#72C4FF"/>
<path d="M172.503 271.528C173.904 271.438 175.295 271.321 176.678 271.173L122.48 325.37C121.481 325.104 120.483 324.825 119.493 324.539L172.503 271.528Z" fill="#72C4FF"/>
<path d="M325.373 122.48L271.176 176.675C271.324 175.29 271.441 173.899 271.532 172.498L324.54 119.492C324.826 120.483 325.105 121.48 325.373 122.48Z" fill="#72C4FF"/>
<path d="M188.366 269.288C190.071 268.915 191.759 268.5 193.432 268.043L133.543 327.932C132.483 327.727 131.427 327.509 130.373 327.279L188.366 269.288Z" fill="#72C4FF"/>
<path d="M327.932 133.544L268.047 193.429C268.502 191.756 268.916 190.068 269.29 188.363L327.279 130.374C327.508 131.428 327.727 132.484 327.932 133.544Z" fill="#72C4FF"/>
<path d="M208.66 262.62C211.229 261.478 213.746 260.235 216.203 258.898L145.306 329.795C144.178 329.657 143.054 329.511 141.933 329.349L208.66 262.62Z" fill="#72C4FF"/>
<path d="M329.794 145.309L258.901 216.199C260.239 213.743 261.482 211.228 262.621 208.659L329.348 141.931C329.508 143.053 329.657 144.178 329.794 145.309Z" fill="#72C4FF"/>
<path d="M330.841 157.886L157.886 330.841C156.677 330.787 155.47 330.72 154.268 330.639L330.639 154.268C330.72 155.47 330.787 156.677 330.841 157.886Z" fill="#72C4FF"/>
<path d="M330.999 167.533C330.983 168.842 330.954 170.143 330.907 171.444L171.445 330.906C170.145 330.954 168.842 330.983 167.534 330.999L330.999 167.533Z" fill="#72C4FF"/>
<path d="M330.202 181.957C330.06 183.396 329.9 184.83 329.72 186.258L186.257 329.72C184.83 329.9 183.396 330.06 181.957 330.202L330.202 181.957Z" fill="#72C4FF"/>
<path d="M327.829 197.954C327.505 199.584 327.158 201.203 326.786 202.818L202.818 326.786C201.206 327.158 199.585 327.504 197.955 327.829L327.829 197.954Z" fill="#72C4FF"/>
<path d="M323.044 216.365C322.416 218.32 321.75 220.258 321.047 222.181L222.181 321.047C220.259 321.749 218.32 322.416 216.366 323.044L323.044 216.365Z" fill="#72C4FF"/>
<path d="M313.632 239.401C312.236 242.193 310.764 244.937 309.219 247.635L247.635 309.219C244.94 310.764 242.195 312.234 239.405 313.628L313.632 239.401Z" fill="#72C4FF"/>
</g>
</svg>
