<svg width="32" height="32" viewBox="0 0 32 32" fill="none" xmlns="http://www.w3.org/2000/svg">
<rect width="32" height="32" rx="16" fill="white"/>
<path d="M24.2545 16.8547C24.3091 16.4184 24.3636 16.0366 24.3636 15.6002C24.3636 11.2366 20.8182 7.63656 16.4 7.63656C15.9636 7.63656 15.5818 7.6911 15.1455 7.74565C14.4364 7.36383 13.6727 7.2002 12.9091 7.2002C10.1818 7.2002 8 9.38201 8 12.1093C8 12.8729 8.16364 13.6366 8.54545 14.3457C8.49091 14.782 8.43636 15.1638 8.43636 15.6002C8.43636 19.9638 11.9818 23.5638 16.4 23.5638C16.8364 23.5638 17.2182 23.5093 17.6545 23.4547C18.3636 23.782 19.1273 24.0002 19.8909 24.0002C22.6182 24.0002 24.8 21.8184 24.8 19.0911C24.8 18.3275 24.5818 17.5638 24.2545 16.8547ZM19.7273 18.4911C19.5636 18.8184 19.3455 19.0911 19.0182 19.3093C18.6909 19.5275 18.3636 19.6911 17.9273 19.8002C17.4909 19.9093 17 19.9638 16.4545 19.9638C15.3091 19.9638 14.3818 19.6911 13.7273 19.2002C13.3455 18.8729 13.0182 18.4911 12.8545 18.0002C12.6364 17.5638 13.0182 17.0184 13.5636 17.0184H13.7273C14.0545 17.0184 14.3818 17.2366 14.4909 17.5093C14.6 17.782 14.7636 18.0002 14.9818 18.1638C15.3091 18.4366 15.8 18.5456 16.4 18.5456C16.9455 18.5456 17.3818 18.4366 17.7091 18.2729C18.0364 18.1093 18.2 17.782 18.2 17.4547C18.2 17.2911 18.1455 17.182 18.0909 17.0729C18.0364 16.9638 17.8727 16.8547 17.7636 16.8002C17.6 16.6911 17.4364 16.6366 17.1636 16.582C16.9455 16.5275 16.6727 16.4184 16.3455 16.3638L16.0182 16.2547C15.6364 16.1456 15.2 16.0366 14.8727 15.9275C14.4909 15.8184 14.1636 15.6547 13.8909 15.4911C13.6182 15.3275 13.4 15.1093 13.2364 14.782C13.0727 14.5093 13.0182 14.1275 13.0182 13.6911C13.0182 13.2547 13.1273 12.8729 13.2909 12.5457C13.4545 12.2184 13.7273 11.9456 14 11.782C14.3273 11.5638 14.6545 11.4002 15.0909 11.3456C15.4727 11.2366 15.9091 11.182 16.4 11.182C16.9455 11.182 17.3818 11.2366 17.8182 11.3456C18.2545 11.4547 18.5818 11.6184 18.9091 11.8911C19.2364 12.1093 19.4545 12.382 19.6182 12.7638C19.8909 13.2547 19.5091 13.9093 18.9091 13.9093H18.7455C18.4182 13.9093 18.1455 13.7457 17.9818 13.4729C17.8727 13.3093 17.7636 13.1457 17.6 12.982C17.3273 12.7638 16.8909 12.6547 16.4 12.6547C15.9091 12.6547 15.5273 12.7638 15.2545 12.9275C14.9818 13.0911 14.8727 13.3638 14.8727 13.6366C14.8727 13.8002 14.9273 13.9093 14.9818 14.0184C15.0364 14.1275 15.1455 14.2366 15.3091 14.2911C15.4727 14.3457 15.6364 14.4547 15.8545 14.5093C16.0727 14.5638 16.3455 14.6184 16.6727 14.7275C17 14.782 17.2727 14.8911 17.6 14.9457C17.8727 15.0002 18.1455 15.1093 18.4182 15.1638C18.6909 15.2729 18.9091 15.382 19.1273 15.4911C19.3455 15.6002 19.5091 15.7638 19.6727 15.9275C19.8364 16.0911 19.9455 16.3093 20 16.5275C20.1091 16.7457 20.1091 17.0729 20.1091 17.4002C20 17.782 19.8909 18.1638 19.7273 18.4911Z" fill="#051D49"/>
</svg>
