<svg width="42" height="59" viewBox="0 0 42 59" fill="none" xmlns="http://www.w3.org/2000/svg">
<path d="M37.0455 1H4.36475L1.09668 6.7M37.0455 1L40.3135 6.7L27.2413 29.5M37.0455 1L23.9732 23.8M1.09668 6.7H27.2413L20.7051 18.1L17.437 12.4M1.09668 6.7L17.437 35.2L4.36475 58M1.09668 6.7L23.9732 46.6H17.437H30.5093L10.9009 12.4M17.437 12.4L30.5093 35.2M17.437 12.4L40.3135 52.3M23.9732 12.4H10.9009M10.9009 12.4L23.9732 35.2M40.3135 52.3L37.0455 58H4.36475M40.3135 52.3H14.169L20.7051 40.9M4.36475 58L1.09668 52.3L14.169 29.5" stroke="#A8A8A8" stroke-width="2" stroke-linecap="round" stroke-linejoin="round"/>
</svg>
