<svg width="57" height="44" viewBox="0 0 57 44" fill="none" xmlns="http://www.w3.org/2000/svg">
<path fill-rule="evenodd" clip-rule="evenodd" d="M0 0L35.2857 44C47.2782 44 57 34.1503 57 22C57 9.84974 47.2782 0 35.2857 0H0ZM37.7224 38.3165C45.5609 37.125 51.5714 30.2737 51.5714 22C51.5714 12.8873 44.2801 5.5 35.2857 5.5H26.3512C30.2193 9.87874 32.5714 15.6611 32.5714 22C32.5714 24.8667 32.0894 27.6225 31.2026 30.1866L37.7224 38.3165ZM26.9343 24.8642C27.0717 23.9301 27.1429 22.9738 27.1429 22C27.1429 14.9976 23.4526 8.86847 17.9349 5.5H11.4053L26.9343 24.8642Z" fill="#A8A8A8"/>
</svg>
