<svg width="53" height="61" viewBox="0 0 53 61" fill="none" xmlns="http://www.w3.org/2000/svg">
<path d="M12.9558 11.5V40M12.9558 11.5H29.3896C32.2952 11.5 35.0819 12.5009 37.1365 14.2825C39.1911 16.0641 40.3454 18.4804 40.3454 21C40.3454 23.5196 39.1911 25.9359 37.1365 27.7175C35.0819 29.4991 32.2952 30.5 29.3896 30.5H12.9558V11.5ZM12.9558 40C10.0502 40 7.2635 41.0009 5.20888 42.7825C3.15427 44.5641 2 46.9804 2 49.5M12.9558 40H34.8675C39.226 40 43.4059 37.9982 46.4879 34.435C49.5698 30.8718 51.3012 26.0391 51.3012 21C51.3012 15.9609 49.5698 11.1282 46.4879 7.56497C43.4059 4.00178 39.226 2 34.8675 2H2V49.5M2 49.5C2 52.0196 3.15427 54.4359 5.20888 56.2175C7.2635 57.9991 10.0502 59 12.9558 59V44.75" stroke="#A8A8A8" stroke-width="3" stroke-linecap="square" stroke-linejoin="round"/>
</svg>
