<svg width="61" height="61" viewBox="0 0 61 61" fill="none" xmlns="http://www.w3.org/2000/svg">
<path d="M2 30.5H0.5H2ZM12.6875 30.5H11.1875H12.6875ZM30.5 48.3125V49.8125V48.3125ZM48.3125 30.5H49.8125H48.3125ZM30.5 0.5C22.5435 0.5 14.9129 3.66071 9.2868 9.2868L11.4081 11.4081C16.4716 6.34464 23.3392 3.5 30.5 3.5V0.5ZM9.2868 9.2868C3.66071 14.9129 0.5 22.5435 0.5 30.5H3.5C3.5 23.3392 6.34464 16.4716 11.4081 11.4081L9.2868 9.2868ZM0.5 30.5C0.5 38.4565 3.66071 46.0871 9.2868 51.7132L11.4081 49.5919C6.34464 44.5284 3.5 37.6608 3.5 30.5H0.5ZM9.2868 51.7132C14.9129 57.3393 22.5435 60.5 30.5 60.5V57.5C23.3392 57.5 16.4716 54.6554 11.4081 49.5919L9.2868 51.7132ZM30.5 60.5C38.4565 60.5 46.0871 57.3393 51.7132 51.7132L49.5919 49.5919C44.5284 54.6554 37.6608 57.5 30.5 57.5V60.5ZM51.7132 51.7132C57.3393 46.0871 60.5 38.4565 60.5 30.5H57.5C57.5 37.6608 54.6554 44.5284 49.5919 49.5919L51.7132 51.7132ZM60.5 30.5C60.5 22.5435 57.3393 14.9129 51.7132 9.2868L49.5919 11.4081C54.6554 16.4716 57.5 23.3392 57.5 30.5H60.5ZM51.7132 9.2868C46.0871 3.66071 38.4565 0.5 30.5 0.5V3.5C37.6608 3.5 44.5284 6.34464 49.5919 11.4081L51.7132 9.2868ZM30.5 11.1875C25.378 11.1875 20.4658 13.2222 16.844 16.844L18.9653 18.9653C22.0245 15.9061 26.1737 14.1875 30.5 14.1875V11.1875ZM16.844 16.844C13.2222 20.4658 11.1875 25.378 11.1875 30.5H14.1875C14.1875 26.1737 15.9061 22.0245 18.9653 18.9653L16.844 16.844ZM11.1875 30.5C11.1875 35.622 13.2222 40.5342 16.844 44.156L18.9653 42.0347C15.9061 38.9755 14.1875 34.8263 14.1875 30.5H11.1875ZM16.844 44.156C20.4658 47.7778 25.378 49.8125 30.5 49.8125V46.8125C26.1737 46.8125 22.0245 45.0939 18.9653 42.0347L16.844 44.156ZM30.5 49.8125C35.622 49.8125 40.5342 47.7778 44.156 44.156L42.0347 42.0347C38.9755 45.0939 34.8263 46.8125 30.5 46.8125V49.8125ZM44.156 44.156C47.7778 40.5342 49.8125 35.622 49.8125 30.5H46.8125C46.8125 34.8263 45.0939 38.9755 42.0347 42.0347L44.156 44.156ZM49.8125 30.5C49.8125 25.378 47.7778 20.4658 44.156 16.844L42.0347 18.9653C45.0939 22.0245 46.8125 26.1737 46.8125 30.5H49.8125ZM44.156 16.844C40.5342 13.2222 35.622 11.1875 30.5 11.1875V14.1875C34.8263 14.1875 38.9755 15.9061 42.0347 18.9653L44.156 16.844ZM18.8755 15.0787C12.6745 20.0395 9.15845 26.0327 8.52179 33.0361C7.89011 39.9845 10.112 47.7193 14.9476 56.1817L17.5524 54.6933C12.888 46.5307 10.9536 39.4217 11.5095 33.3077C12.0603 27.2485 15.0755 21.9605 20.7495 17.4213L18.8755 15.0787ZM42.1245 45.9213C48.3192 40.9656 51.8405 35.0385 52.4781 28.0931C53.1105 21.2045 50.8856 13.5322 46.0524 5.07398L43.4476 6.5624C48.1144 14.7292 50.0457 21.7728 49.4907 27.8188C48.9408 33.8081 45.9308 39.0344 40.2505 43.5787L42.1245 45.9213Z" fill="#A8A8A8"/>
</svg>
