<svg width="37" height="59" viewBox="0 0 37 59" fill="none" xmlns="http://www.w3.org/2000/svg">
<path d="M33.0833 1H3.91667L1 6.7M33.0833 1L36 6.7L24.3333 29.5M33.0833 1L21.4167 23.8M1 6.7H24.3333L18.5 18.1L15.5833 12.4M1 6.7L15.5833 35.2L3.91667 58M1 6.7L21.4167 46.6H15.5833H27.25L9.75 12.4M15.5833 12.4L27.25 35.2M15.5833 12.4L36 52.3M21.4167 12.4H9.75M9.75 12.4L21.4167 35.2M36 52.3L33.0833 58H3.91667M36 52.3H12.6667L18.5 40.9M3.91667 58L1 52.3L12.6667 29.5" stroke="white" stroke-width="2" stroke-linecap="round" stroke-linejoin="round"/>
</svg>
