<svg width="48" height="61" viewBox="0 0 48 61" fill="none" xmlns="http://www.w3.org/2000/svg">
<path d="M11.7778 11.5V40M11.7778 11.5H26.4444C29.0377 11.5 31.5247 12.5009 33.3584 14.2825C35.1921 16.0641 36.2222 18.4804 36.2222 21C36.2222 23.5196 35.1921 25.9359 33.3584 27.7175C31.5247 29.4991 29.0377 30.5 26.4444 30.5H11.7778V11.5ZM11.7778 40C9.18455 40 6.69753 41.0009 4.86384 42.7825C3.03015 44.5641 2 46.9804 2 49.5M11.7778 40H31.3333C35.2232 40 38.9537 37.9982 41.7042 34.435C44.4548 30.8718 46 26.0391 46 21C46 15.9609 44.4548 11.1282 41.7042 7.56497C38.9537 4.00178 35.2232 2 31.3333 2H2V49.5M2 49.5C2 52.0196 3.03015 54.4359 4.86384 56.2175C6.69753 57.9991 9.18455 59 11.7778 59V44.75" stroke="white" stroke-width="3" stroke-linecap="square" stroke-linejoin="round"/>
</svg>
