<svg width="61" height="32" viewBox="0 0 61 32" fill="none" xmlns="http://www.w3.org/2000/svg">
<path d="M59 27.6667L59 4.33333L54.25 2M59 27.6667L54.25 30L35.25 20.6667M59 27.6667L40 18.3333M54.25 2L54.25 20.6667L44.75 16L49.5 13.6667L30.5 23L11.5 13.6667L16.25 16L6.75 20.6667L6.75 2M54.25 2L30.5 13.6667L6.75 2M49.5 18.3333L49.5 9L30.5 18.3333L11.5 9L11.5 18.3333M2 27.6667L2 4.33333L6.75 2M2 27.6667L6.75 30L25.75 20.6667M2 27.6667L21 18.3333" stroke="white" stroke-width="3" stroke-linejoin="round"/>
</svg>
