<svg width="215" height="179" viewBox="0 0 215 179" fill="none" xmlns="http://www.w3.org/2000/svg">
<g opacity="0.1">
<path opacity="0.7" d="M68.6924 59.9782C68.6924 58.6088 69.8021 57.499 71.1715 57.499C72.5408 57.499 73.6505 58.6088 73.6505 59.9782C73.6505 61.3475 72.5408 62.4572 71.1715 62.4572C69.8021 62.4572 68.6924 61.3475 68.6924 59.9782Z" fill="#0D3F98"/>
<path opacity="0.7" d="M45.7954 59.9737C45.7954 58.6044 46.9051 57.4946 48.2744 57.4946C49.6437 57.4946 50.7535 58.6044 50.7535 59.9737C50.7535 61.343 49.6437 62.4527 48.2744 62.4527C46.9051 62.4568 45.7954 61.3472 45.7954 59.9737Z" fill="#0D3F98"/>
<path opacity="0.7" d="M22.897 59.9737C22.897 58.6044 24.0067 57.4946 25.376 57.4946C26.7454 57.4946 27.8551 58.6044 27.8551 59.9737C27.8551 61.343 26.7454 62.4527 25.376 62.4527C24.0067 62.4568 22.897 61.3472 22.897 59.9737Z" fill="#0D3F98"/>
<path opacity="0.7" d="M0 59.9737C0 58.6044 1.10973 57.4946 2.47906 57.4946C3.8484 57.4946 4.95813 58.6044 4.95813 59.9737C4.95813 61.343 3.8484 62.4527 2.47906 62.4527C1.10973 62.4527 0 61.3472 0 59.9737Z" fill="#0D3F98"/>
<path opacity="0.7" d="M91.5903 59.9782C91.5903 58.6088 92.7 57.499 94.0694 57.499C95.4387 57.499 96.5484 58.6088 96.5484 59.9782C96.5484 61.3475 95.4387 62.4572 94.0694 62.4572C92.7 62.4572 91.5903 61.3475 91.5903 59.9782Z" fill="#0D3F98"/>
<path d="M75.1083 178.599C53.8355 178.599 36.5283 161.292 36.5283 140.019C36.5283 118.746 53.8355 101.439 75.1083 101.439C96.3811 101.439 113.688 118.746 113.688 140.019C113.688 161.292 96.3811 178.599 75.1083 178.599ZM75.1083 105.622C56.1428 105.622 40.7159 121.054 40.7159 140.015C40.7159 158.98 56.147 174.407 75.1083 174.407C94.0737 174.407 109.501 158.976 109.501 140.015C109.501 121.054 94.0696 105.622 75.1083 105.622Z" fill="#0D3F98"/>
<path d="M212.039 0.266419L73.7192 138.567L76.6803 141.528L215 3.22786L212.039 0.266419Z" fill="#0D3F98"/>
</g>
</svg>
