<svg width="215" height="248" viewBox="0 0 215 248" fill="none" xmlns="http://www.w3.org/2000/svg">
<g opacity="0.3">
<path d="M176.824 77.0892C155.774 77.0892 138.646 59.9637 138.646 38.9122C138.649 17.8628 155.774 0.737305 176.824 0.737305C197.875 0.737305 215.001 17.8628 215.001 38.9143C215.001 59.9637 197.875 77.0892 176.824 77.0892ZM176.824 2.84351C156.935 2.84351 140.753 19.0255 140.753 38.9143C140.753 58.8032 156.935 74.9851 176.824 74.9851C196.712 74.9851 212.894 58.8032 212.894 38.9143C212.894 19.0255 196.712 2.84351 176.824 2.84351Z" fill="#72C4FF"/>
<path d="M176.087 38.1585L1.63818 212.632L3.12769 214.121L177.576 39.6478L176.087 38.1585Z" fill="#72C4FF"/>
<path d="M110.762 151.83C102.662 151.83 96.0693 145.24 96.0693 137.137C96.0693 129.037 102.66 122.444 110.762 122.444C118.863 122.444 125.455 129.035 125.455 137.137C125.455 145.24 118.865 151.83 110.762 151.83ZM110.762 124.551C103.822 124.551 98.1755 130.197 98.1755 137.137C98.1755 144.077 103.822 149.724 110.762 149.724C117.702 149.724 123.349 144.077 123.349 137.137C123.349 130.197 117.702 124.551 110.762 124.551Z" fill="#72C4FF"/>
<path d="M110.029 136.391L0 246.436L1.48951 247.925L111.519 137.881L110.029 136.391Z" fill="#72C4FF"/>
</g>
</svg>
